<?xml version="1.0" encoding="UTF-8"?>
<svg id="Layer_2" data-name="Layer 2" xmlns="http://www.w3.org/2000/svg" viewBox="0 0 191.67 191.67">
  <defs>
    <style>
      .cls-1 {
        font-family: BebasNeue, BebasNeue;
        font-size: 23.84px;
        letter-spacing: .1em;
      }

      .cls-1, .cls-2 {
        fill: #4c5b72;
      }

      .cls-3 {
        fill: #152428;
      }

      .cls-4 {
        fill: none;
      }

      .cls-5 {
        fill: #808793;
      }

      .cls-6 {
        fill: #f2f2f2;
      }
    </style>
  </defs>
  <g id="Logo_4" data-name="Logo 4">
    <g id="Background">
      <rect class="cls-6" x="0" y="0" width="191.67" height="191.67" rx="95.84" ry="95.84"/>
    </g>
    <g id="Graphic_Elements" data-name="Graphic Elements">
      <g>
        <path class="cls-4" d="m91.46,62.22c.07.13.17.26.3.39.02-.14.02-.27,0-.39h-.3Z"/>
        <path class="cls-4" d="m93.27,62.22s0,.03,0,.04c0-.02,0-.03,0-.04h0Z"/>
        <path class="cls-4" d="m102.55,115.11s-.03.12-.04.18c0,.05,0,.13.09.12.1-.02.1-.1.11-.17,0-.05,0-.1-.03-.13h-.13Z"/>
        <path class="cls-4" d="m92.75,57.26c.1-.17.13-.32.12-.48h-.2c-.05.16-.04.3.08.48Z"/>
        <path class="cls-4" d="m93.84,59.46s.01-.02.01-.04c0-.05-.04-.07-.08-.08-.05,0-.08.02-.09.07,0,.02,0,.04,0,.06h.16Z"/>
        <path class="cls-4" d="m102.93,115.3s.01.03.04.08c.02-.03.03-.05.03-.06,0-.07.05-.14.03-.21h-.13c-.03.06.01.13.02.2Z"/>
        <path class="cls-4" d="m102.91,49.1h-.09c0,.08,0,.16.01.23.01.16.03.33.04.49h.03v-.72Z"/>
        <path class="cls-4" d="m95.91,57.02c-.12,0-.12.12-.13.2,0,.02,0,.04,0,.07h.23s0-.04,0-.06c-.02-.08.02-.21-.11-.21Z"/>
        <path class="cls-4" d="m82.7,67.63c-.08,0-.08.07-.08.13,0,.06.05.11.11.12.07,0,.11-.04.11-.11-.02-.07-.05-.14-.14-.13Z"/>
        <path class="cls-4" d="m94.32,53.86c-.07,0-.14.04-.15.12-.01.06.03.11.11.11.08,0,.16-.03.17-.11,0-.06-.03-.11-.12-.11Z"/>
        <path class="cls-4" d="m94.31,59.2c-.07-.01-.1.05-.11.11,0,.06,0,.11.05.14h.11s.02-.04.03-.07c-.03-.06.01-.17-.09-.19Z"/>
        <path class="cls-4" d="m87.27,72.22c-.07-.02-.08.03-.08.07-.01.05.01.08.03.09.09.02.11-.02.12-.06.02-.05-.02-.08-.07-.09Z"/>
        <path class="cls-4" d="m95.49,51.14v.07s0,0,0,0c.02.02.1,0,.12-.01.03-.03.05-.06.05-.09h-.04s-.14.02-.14.02Z"/>
        <path class="cls-4" d="m105.16,115.48c.08-.12.09-.21.01-.35-.09.14-.09.24-.01.35Z"/>
        <path class="cls-4" d="m93.13,100.72c-.1,0-.18.02-.26.06h.26v-.06Z"/>
        <path class="cls-4" d="m90.62,100.64s0,.09,0,.14h.21c0-.05-.01-.1-.01-.15,0-.04,0-.09,0-.13h-.19s0,.1,0,.15Z"/>
        <path class="cls-4" d="m91.02,59.16c-.02.1-.02.2-.01.29h.34c-.03-.13-.15-.21-.32-.29Z"/>
        <path class="cls-4" d="m106.42,95.62c-.19-.05-.34-.06-.48-.06v.18c.14.02.3,0,.48-.12Z"/>
        <path class="cls-4" d="m90.94,56.58c.02.25-.01.48-.04.72h.17c-.09-.23-.06-.49-.13-.72Z"/>
        <path class="cls-4" d="m86.24,54.09c.09,0,.13-.08.12-.16,0-.08-.08-.07-.14-.07-.06.01-.13.02-.12.1,0,.08.06.14.15.13Z"/>
        <path class="cls-4" d="m103.22,115.11s-.01.04-.01.07c0,.08-.01.21.11.2.1,0,.11-.13.12-.22,0-.02,0-.03,0-.05h-.22Z"/>
        <path class="cls-4" d="m87.38,54.53c-.53-.04-1.07-.03-1.61,0-.07,0-.13.05-.13.11,0,.06.06.12.12.12.28,0,.57,0,.85,0,0,0,0,.01,0,.02.24,0,.47,0,.71,0,.08,0,.17,0,.19-.1.02-.09-.06-.15-.14-.15Z"/>
        <path class="cls-4" d="m88.38,53.88c-.28-.07-.57-.02-.75-.03-.34,0-.57,0-.81,0-.1,0-.19.05-.18.16,0,.1.09.2.18.16.26-.1.5.04.74.04.27,0,.54,0,.81-.01.1,0,.17-.08.17-.19,0-.09-.09-.12-.16-.14Z"/>
        <path class="cls-4" d="m106.07,60.74s-.1-.04-.14-.02v.87s.09.08.16.1c.07.02.06.04-.12.13-.02.02-.04.04-.05.06v.09s.02.06.04.1c0,.06,0,.12,0,.18,0,.1,0,.21.09.28.08.05.17.04.18-.05,0-.19.06-.39-.03-.58-.03-.06-.09-.12-.02-.2.19-.22.04-.47.05-.7,0-.11-.08-.2-.18-.25Z"/>
        <path class="cls-4" d="m106.04,90.71c.07,0,.11-.06.11-.12,0-.07-.03-.12-.1-.13-.05,0-.09,0-.11.03v.19s.06.03.1.03Z"/>
        <path class="cls-4" d="m91.54,66.79c-.08.02-.13.07-.13.15,0,.03.01.06.04.08h.14s.05-.06.05-.1c0-.06-.02-.11-.1-.13Z"/>
        <path class="cls-4" d="m106.06,83.89c-.16.27,0,.42,0,.69.21-.28.13-.45,0-.69Z"/>
        <path class="cls-4" d="m105.94,73.51v.72s.03-.04.04-.07c.05-.21-.04-.44.09-.64-.05-.01-.09-.02-.13-.01Z"/>
        <path class="cls-4" d="m106.04,89.55c-.04.05-.08.1-.1.15v.19s.08.1.16.16c-.05-.2.03-.35-.06-.5Z"/>
        <path class="cls-4" d="m106.27,114.15c-.19.24-.08.41.03.58.02-.18.09-.35-.03-.58Z"/>
        <path class="cls-4" d="m95.51,66.45c-.05-.16-.04-.29-.01-.41h-.2c.02.13-.03.29.21.41Z"/>
        <path class="cls-4" d="m93.14,65.85l-.17-.13c-.63.03-1.26-.04-1.89-.05-.41,0-.82,0-1.23,0-1.14,0-2.29,0-3.43,0-.08,0-.2-.03-.2.15.08.03.17.1.25.09.3-.05.59.07.89.02.29-.05.59-.06.88-.02.3.05.61.07.9.02.29-.06.45,0,.53.3.15-.14.15-.39.39-.33.38.08.76.07,1.13.01.18-.03.22.07.27.19,0,.11-.14.26,0,.31.15.05.18-.13.21-.23.01-.04,0-.09,0-.13.06-.05.13-.15.17-.14.32.09.66-.04.96.12.06.03.1.06.17.04.36-.11.73-.14,1.09-.14v-.08h-.92Z"/>
        <path class="cls-4" d="m93.32,68.49c-.02.12-.05.23.03.33h.04c.04-.12.19-.25-.07-.33Z"/>
        <path class="cls-4" d="m91.5,67.87s-.1.02-.1.07c0,.07.04.1.11.09.05,0,.07-.05.08-.09,0-.05-.04-.07-.09-.07Z"/>
        <path class="cls-4" d="m92.79,66.31s-.01-.02-.02-.03c-.01,0-.03,0-.03.02,0,0,0,.03,0,.03.02.02.04.01.04-.02Z"/>
        <path class="cls-4" d="m87.6,69.15c.09,0,.09-.1.11-.17,0-.06-.03-.12-.1-.12-.1,0-.13.05-.13.14,0,.08.03.16.12.15Z"/>
        <path class="cls-4" d="m106.06,90.91s-.05-.04-.08-.04c-.02,0-.04,0-.05,0v.72c.02.13.04.26.09.4.27-.38,0-.74.04-1.09Z"/>
        <path class="cls-4" d="m105.94,74.84s.03-.04.04-.07c.02-.06.01-.11-.04-.13v.2Z"/>
        <path class="cls-4" d="m106.1,92.35c-.07,0-.12.03-.11.11,0,.05.05.08.1.07.04,0,.11-.03.12-.05.01-.06-.03-.11-.1-.13Z"/>
        <path class="cls-4" d="m87.79,71.92s-.07-.07-.05-.11c.14-.29.08-.6.1-.91,0-.15.03-.31-.14-.32-.2,0-.16.18-.14.31,0,.01.02.03.03.04,0,.03,0,.06.03.08-.17.32-.14.79.07.99.05.04.11.07.16.02.06-.06-.02-.07-.05-.09Z"/>
        <path class="cls-4" d="m106.14,69.2s.04.08.1.08c.06,0,.12-.03.1-.11-.01-.07-.09-.11-.13-.18-.03.08-.09.14-.07.22Z"/>
        <path class="cls-4" d="m87.72,68.41c.02-.06.03-.12-.04-.16-.07-.05-.15-.04-.22-.01-.08.04-.1.11-.07.19.04.1.09.19.19.25.05-.09.1-.18.14-.27Z"/>
        <path class="cls-4" d="m105.97,60.43c.17.02.23-.07.22-.22-.02-.34-.04-.67-.07-1.01.08-.12.05-.23-.02-.34-.03-.05-.1-.08-.17-.1v1.66s.02,0,.03,0Z"/>
        <path class="cls-4" d="m88.44,66.45s.04-.05.03-.07c0-.04-.04-.07-.08-.07-.06.02-.07.06-.05.1.02.04.06.06.1.04Z"/>
        <path class="cls-4" d="m105.98,76.32s0-.08-.04-.1v.15s.03-.02.04-.05Z"/>
        <path class="cls-4" d="m105.99,75.68s0-.09-.06-.12v.17s.04-.02.06-.05Z"/>
        <path class="cls-4" d="m88.17,66.95c0,.06.02.12.11.11.08-.01.15-.03.16-.12,0-.07-.05-.11-.12-.1-.08,0-.16.02-.15.12Z"/>
        <path class="cls-4" d="m108.53,66.9c.02-.14,0-.27-.04-.41-.02-.06-.06-.12-.13-.07-.05.03-.08.1-.02.16.09.09.18.17.11.31-.02.04-.09.05-.1.09-.04.11.08.26.16.21.12-.08.07-.19.03-.29Z"/>
        <path class="cls-4" d="m108.69,69.66c-.08,0-.12.06-.12.12,0,.06.03.13.11.12.08,0,.08-.08.08-.07,0-.11-.02-.16-.07-.16Z"/>
        <path class="cls-4" d="m108.57,75.73s-.06.05-.08.07c0,.07.02.09.07.11.06.02.08-.02.09-.06,0-.05.02-.13-.07-.11Z"/>
        <path class="cls-4" d="m108.25,81.87c-.06.03-.09.08-.08.17.01.09.06.13.15.13.08,0,.11-.04.1-.11,0-.09-.02-.18-.17-.19Z"/>
        <path class="cls-4" d="m108.9,62.96c-.07,0-.08.08-.07.14,0,.06.02.12.05.28.07-.16.11-.21.12-.26.01-.07.01-.17-.1-.16Z"/>
        <path class="cls-4" d="m108.29,87.9c-.1,0-.14.06-.14.14,0,.08.02.15.13.15.09,0,.15-.05.15-.14,0-.07-.05-.14-.14-.15Z"/>
        <path class="cls-4" d="m109.21,94.47c-.07,0-.13.04-.16.12-.03.1,0,.18.11.22.07.02.12-.03.14-.09.04-.09.03-.18-.09-.25Z"/>
        <path class="cls-4" d="m108.71,69.09s-.07.04-.06.09c0,.04.02.09.08.07.04-.02.08-.04.07-.09,0-.05-.04-.07-.09-.07Z"/>
        <path class="cls-4" d="m108.31,89.02c-.08,0-.11.04-.1.09,0,.05.04.08.09.07.05,0,.07-.05.07-.09,0-.05-.04-.07-.06-.07Z"/>
        <path class="cls-4" d="m107.67,69.3c-.06,0-.08.04-.08.08,0,.05.03.08.08.08.05,0,.09-.03.09-.08,0-.05-.03-.08-.08-.08Z"/>
        <path class="cls-4" d="m106.6,95.67c.35.13.7.06,1.06.03-.35-.17-.7-.13-1.06-.03Z"/>
        <path class="cls-4" d="m108.02,96.23c-.05,0-.07.04-.08.09.01.05.04.07.09.07.05,0,.08-.04.07-.08,0-.05-.04-.08-.09-.07Z"/>
        <path class="cls-4" d="m108.11,71.64c-.01-.07-.02-.15-.12-.15-.07.02-.11.06-.1.13,0,.07.08.08.14.09.06.01.09-.01.08-.06Z"/>
        <path class="cls-4" d="m115.66,60.4c.03-.49.12-.98-.08-1.45-.1.49,0,.97.08,1.45Z"/>
        <path class="cls-4" d="m107.53,96.82c-.07-.02-.14.01-.15.07-.03.09-.03.19.06.24.07.05.12-.02.14-.08.03-.08.08-.18-.04-.24Z"/>
        <path class="cls-4" d="m116.53,57.97c-.08.5-.05,1-.04,1.5,0,.06.09.13.2.06.02-.54.02-1.08-.02-1.68-.09.08-.13.1-.13.12Z"/>
        <path class="cls-4" d="m116.94,56.06c0-.23,0-.45,0-.68-.07.35-.14.69-.06,1.08.08-.16.06-.28.06-.41Z"/>
        <path class="cls-4" d="m117.02,58.57c-.04-.07-.09-.13-.13-.2,0,.06.04.12.13.2Z"/>
        <path class="cls-4" d="m110.62,69.35s-.04-.07-.09-.08c-.06-.01-.11.02-.11.06-.02.18-.04.36-.03.54,0,.11.09.18.24.21-.02-.24-.12-.48,0-.71Z"/>
        <path class="cls-4" d="m111.14,65.94s.04.04.06.04c.05,0,.07-.04.06-.08,0-.02-.05-.03-.07-.04-.05,0-.07.04-.06.08Z"/>
        <path class="cls-4" d="m111.51,69.68c-.17-.06-.13.25-.21.37-.01.02.03.08.05.12.12-.01.12-.08.11-.11-.06-.15.35-.29.05-.39Z"/>
        <path class="cls-4" d="m114.87,56.7c.03.44.2.86.19,1.3.1-.33.11-1,.05-1.17-.02-.07-.07-.13-.24-.12Z"/>
        <path class="cls-4" d="m114.4,55.67c-.08,0-.11.08-.1.13.06.24.07.48,0,.72-.03.09.04.2.13.22.12.03.15-.09.18-.17.03-.09.03-.18.04-.27,0-.19-.06-.36-.12-.54-.02-.06-.06-.11-.13-.1Z"/>
        <path class="cls-4" d="m115.11,54.63c-.18.32-.17.53,0,1.04v-1.04Z"/>
        <path class="cls-4" d="m106.65,107.99c0-.07-.05-.1-.12-.1-.08.03-.12.08-.1.16.02.07.07.09.14.07.07-.02.09-.07.08-.14Z"/>
        <path class="cls-4" d="m107.49,75.24c.07,0,.11-.04.13-.1,0-.06-.05-.07-.09-.07-.06,0-.13,0-.15.07-.02.07.04.11.11.1Z"/>
        <path class="cls-4" d="m107.57,74.75s-.01-.06-.03-.07c-.04-.02-.08,0-.1.04-.02.03,0,.06.03.07.04.01.08,0,.11-.04Z"/>
        <path class="cls-4" d="m107.23,100.15c-.16-.03-.11.14-.12.23,0,.06.01.11.03.28.08-.14.12-.18.14-.23.03-.1.07-.25-.05-.27Z"/>
        <path class="cls-4" d="m107.36,91.23c.05-.19.09-.31-.02-.43-.08.14-.05.25.02.43Z"/>
        <path class="cls-4" d="m108.26,70.66s.15,0,.12-.09c-.03-.08-.1-.11-.25-.11,0,0-.03.04-.03.08,0,.09.07.14.16.12Z"/>
        <path class="cls-4" d="m107.55,76.47c.12-.17.03-.31-.07-.43-.03-.04-.09-.03-.12.02-.07.14.05.25.1.36,0,.02.05.03.09.05Z"/>
        <path class="cls-4" d="m107.32,90.1c.08,0,.1-.06.1-.12,0-.04-.02-.09-.08-.09-.06.02-.11.05-.11.12,0,.05.03.09.09.09Z"/>
        <path class="cls-4" d="m110.2,109.97q-.05.34.11.61.06-.46-.11-.61Z"/>
        <path class="cls-4" d="m108.51,113.76c-.21.36-.19,1.18.04,1.8.07-.63.18-1.19-.04-1.8Z"/>
        <path class="cls-4" d="m108.17,115.35c.17-.18-.04-.32-.07-.49.01.16-.14.33.03.49,0,0,.04,0,.04,0Z"/>
        <path class="cls-4" d="m109.29,87.97s-.03-.04-.05-.05c-.03.01-.07.02-.08.04,0,.02.01.07.03.07.05.02.09,0,.1-.06Z"/>
        <path class="cls-4" d="m108.13,113.85q-.08.27,0,.5c.08-.16.03-.33,0-.5Z"/>
        <path class="cls-4" d="m107.62,68.05s.11-.02.11-.04c.02-.06-.03-.1-.11-.11-.02.01-.08.02-.09.05-.02.06.03.11.09.11Z"/>
        <path class="cls-4" d="m107.02,104.52c-.02.07.05.12.1.13.1.01.14-.05.13-.14-.03-.19-.11-.38.02-.55-.01-.06-.02-.1-.04-.15-.03-.1,0-.24-.17-.22-.18.02-.17.18-.13.28.08.21.16.42.08.65Z"/>
        <path class="cls-4" d="m107.03,110.62c.21-.6.21-.71.02-.96-.03.31-.07.6-.02.96Z"/>
        <path class="cls-4" d="m107.1,103.15c.01-.06-.03-.08-.08-.09-.02,0-.07.02-.07.04-.02.04,0,.09.05.11.05.02.08,0,.1-.06Z"/>
        <path class="cls-4" d="m107.22,107.97c-.07.01-.09.07-.08.13,0,.05.03.08.08.09.09.01.1-.06.1-.11,0-.05,0-.13-.09-.11Z"/>
        <path class="cls-4" d="m107.1,111.44c.03-.18.06-.37-.05-.54-.02.18-.11.37.05.54Z"/>
        <path class="cls-4" d="m106.84,50.56c.05,0,.08-.04.09-.13-.08-.13-.1-.3-.11-.48,0-.07-.12-.08-.2-.07-.05,0-.1.05-.08.09.08.18.04.4.18.55.03.03.08.04.13.04Z"/>
        <path class="cls-4" d="m106.24,115.16c-.08.11-.07.21.06.35.05-.14.09-.25.02-.36,0,0-.07,0-.08.01Z"/>
        <path class="cls-4" d="m106.71,48.84c.03-.07.04-.13.07-.18.04-.07.07-.14,0-.2-.04-.03-.08-.04-.13-.02-.08.04-.12.09-.12.18,0,.1.04.18.18.23Z"/>
        <path class="cls-4" d="m106.59,113.77c-.06-.01-.08.03-.09.07-.02.06.02.08.07.09.06.02.07-.03.09-.07,0-.05-.02-.08-.06-.09Z"/>
        <path class="cls-5" d="m91.53,67.61c-.03-.09-.1-.1-.18-.11-.05.02-.13.03-.1.11.02.09.1.11.18.1.05,0,.14-.01.11-.1Z"/>
        <path class="cls-5" d="m100.3,50.93v-.17s-.04-.02-.07-.01c-.07.01-.09.06-.08.13.01.07.06.1.12.08,0,0,.02,0,.03-.02Z"/>
        <path class="cls-5" d="m99.07,67.66h-.17s.02.05.06.07c.06.02.09-.02.11-.07Z"/>
        <path class="cls-5" d="m97.11,67.7c.06,0,.09-.01.11-.04h-.06v-.19c-.07.01-.09.08-.12.14-.02.06.02.08.07.09Z"/>
        <path class="cls-5" d="m99.29,66.12c-.01-.08,0-.14.04-.19.05-.08.04-.14-.06-.16-.09-.02-.17.02-.18.1-.01.07.03.15.02.22,0,.04-.02.08-.04.12h.23s0-.07,0-.09Z"/>
        <path class="cls-5" d="m100.43,66.21h.1c.04-.06.08-.12.02-.21-.03-.04-.06-.07-.16-.04,0,0-.03.03-.05.07-.04.09.03.13.09.18Z"/>
        <path class="cls-5" d="m98.04,65.68c-.13-.02-.2.06-.23.16,0,.09.05.15.14.15.11,0,.15-.09.18-.18.02-.06-.02-.12-.09-.13Z"/>
        <path class="cls-5" d="m91.53,67.04s.04-.01.06-.02h-.14s.05.03.09.02Z"/>
        <path class="cls-5" d="m96.04,65.74s-.15.02-.13.13c.02.07.09.07.15.07.08,0,.16-.03.14-.13-.01-.07-.08-.08-.16-.07Z"/>
        <path class="cls-5" d="m94.81,65.68c-.54.11-1.08-.01-1.63.03-.07,0-.14,0-.21.01l.17.13h.92v.08c.4,0,.81.03,1.21.02.02.02.03.05.04.08h.2c.01-.05.03-.11.05-.16.04-.12-.09-.12-.18-.13-.2.05-.38-.11-.56-.07Z"/>
        <path class="cls-5" d="m100.86,68.19s.04-.05.04-.07c-.02-.05-.06-.06-.11-.04-.04.01-.05.04-.03.07.02.05.06.07.11.04Z"/>
        <path class="cls-5" d="m92.91,50.44s0,0,0,0c.06,0,.13-.01.19-.02.16.03.32.03.47,0,.15.02.31.04.46-.02-.03-.19-.06-.38-.1-.57,0-.09,0-.19.02-.28l-.19.08v.32l-.36.23-.24-.19-.36-.02-.05-.35-.11.32-.21-.31s0,0,0,0l-.02.41-.3-.22s0,0,0,0l.22.37-.4.03.38.16v.11s-.22.23-.22.23l.38-.11-.04.24h-.28l-.04.06-1.03.02-.24.15h-.05s0-.28,0-.28h-.29l-.1.07-.02.2-.08.02-.03-.22h-.23l-.13.07h-.11s-.11.09-.11.09l-.28-.12h-.2l.7.47h.29l.11-.08.07-.02v.08l.12.08h.31l.08-.12h.36v-.16h.36l1.09.21c.06-.25.16-.5.15-.76.03-.06.06-.12.09-.18Z"/>
        <path class="cls-5" d="m100.35,67.94h-.08c-.05.02-.09.06-.06.11.04.09.09.2.23.18.07-.01.1-.07.1-.13,0-.12-.1-.13-.18-.15Z"/>
        <path class="cls-5" d="m97.08,68.82h.13s.07-.07.05-.14c0-.03-.06-.05-.1-.07-.06.05-.16.08-.12.17,0,.01.02.03.04.04Z"/>
        <path class="cls-5" d="m96.69,65.76s-.11,0-.12.07c-.02.08.06.1.11.1.06,0,.12-.02.12-.1,0-.05-.04-.07-.11-.07Z"/>
        <path class="cls-5" d="m100.24,68.82h.25s.02-.03.01-.06c0-.1-.05-.17-.17-.16-.08.01-.17.05-.16.13,0,.05.03.07.07.09Z"/>
        <path class="cls-5" d="m97.19,65.88c.02.07.07.09.14.08.08-.02.15-.06.13-.15,0-.02-.07-.05-.11-.05-.09,0-.15.03-.15.12Z"/>
        <path class="cls-5" d="m95.36,68.53c0-.09.02-.23-.12-.25-.13-.02-.18.1-.23.19-.04.07-.01.15.03.21.03.05.04.1.04.15h.16c.04-.1.14-.19.13-.3Z"/>
        <path class="cls-5" d="m91,57.46c.08,0,.12-.05.09-.12,0-.02-.01-.03-.02-.05h-.17s0,.03,0,.05c0,.07.03.11.1.11Z"/>
        <path class="cls-5" d="m87.17,89.43v-.76h1.03v-.44h-3.22v.22h-1.81v.22h-.77v.22h-.3v.24h-.42l.05.2h-.21l-.02.12s-1.77.01-2.09,0c-.36-.01-.4.32-.4.32h-.93v.1h.92c.02.39.36.41.36.41h2.33v.3h.37v.24h.37l.02.24h.65l.02.18h1.84v.12h3v-1.97h-.79Z"/>
        <path class="cls-5" d="m95.51,50.89c.02.11-.15.21-.02.32v-.07l.14-.02h.04c0-.08-.11-.14-.12-.23.17-.11-.03-.21,0-.32.01-.07.11-.2-.06-.19-.11,0-.14.15-.07.21.1.09-.1.25.09.29Z"/>
        <path class="cls-5" d="m91.1,59.01h.03s.02,0,.03,0c.1-.01.09-.07.1-.16.03-.25-.12-.48-.07-.73,0-.06.02-.12,0-.18-.02-.12-.06-.26-.23-.23-.16.02-.13.16-.12.26.03.2.06.39.06.59,0,.12.02.24.05.36.02.06.07.09.13.09Z"/>
        <polygon class="cls-5" points="101.21 95.39 101.21 95.03 99.12 95.03 99.12 93.46 98.25 93.46 98.25 92.86 97.28 92.86 97.28 91.69 95.09 91.69 95.09 91.87 89.88 91.87 89.88 93.11 95.48 93.11 95.48 93.17 94.81 93.75 90.85 93.75 90.27 93.75 90.27 94.12 89.88 94.12 89.88 95.09 87.25 95.09 87.25 95.96 92.68 95.96 92.68 96.76 88.09 96.76 88.09 97.81 92.98 97.81 92.98 95.39 101.21 95.39"/>
        <path class="cls-5" d="m99.7,49.22c.05-.18.1-.36.04-.6-.14.19-.1.4-.26.52-.07.05-.11.13-.02.18.1.06.21.04.24-.1Z"/>
        <polygon class="cls-5" points="91.53 75.87 91.53 76.4 92.55 76.4 92.55 76.7 94.19 76.7 94.19 75.87 91.53 75.87"/>
        <path class="cls-5" d="m100.16,49.5c-.05.09-.16.18-.02.19.19,0,.06-.1.02-.19Z"/>
        <path class="cls-5" d="m90.62,100.49h.19c0-.29,0-.57,0-.86.16-.17.19-.38.24-.59h-.22c-.03.13-.11.25-.12.38-.11.35-.09.71-.09,1.06Z"/>
        <path class="cls-5" d="m93.73,59.5s.09,0,.11-.05h-.16s.02.04.05.05Z"/>
        <path class="cls-5" d="m94.16,65.06s.05-.04.08,0c.23.29.54.07.8.08.77.02,1.54.07,2.3.04v-.18h-.97v-.48h.67v-1.03c-.39.02-.78.05-1.17.07-.14-.25-.31-.39-.57-.12-.09.09-.12-.04-.19-.06-.31-.12-.33-.11-.39.26-.03,0-.06,0-.09,0,.02-.29-.2-.3-.4-.31-.12,0-.23.07-.36.04-.04,0-.07,0-.11,0-.03,0-.06-.01-.09-.02-.02-.06-.04-.13-.12-.12-.09.01-.14.12-.25.12-.6,0-1.2.01-1.79.02-.11,0-.26-.03-.32.03-.12.12-.18.16-.28-.01-.03-.06-.13-.08-.2-.11-.07-.11-.1-.24-.1-.37,0-.03,0-.06,0-.08h-11.91v.85s-.21.01-.21.01v-.66s-.1-.2-.1-.2h-.17l-.15.16-.02.72-5.67.12,5.67.12v.75l.13.16h.2s.1-.19.1-.19v-.72h.16v.97h14.07l-.26.27c.32,0,.65,0,.97,0,.24,0,.51.12.72-.12Z"/>
        <path class="cls-5" d="m89.49,61.87c-.13-.19-.28-.33-.46-.46h-.02s-.05-.06-.07-.08c-.04-.32-.07-.64-.13-.95-.07-.33-.17-.65-.36-.92h-2.9l-1.45,1.26,1.42,1.52h4.31c-.14-.12-.26-.24-.34-.37Z"/>
        <path class="cls-5" d="m94.08,61.91c0-.13-.08-.14-.18-.13-.09.01-.13.07-.11.16.04.14.08.27.13.43.18-.13.16-.29.16-.46Z"/>
        <path class="cls-5" d="m95.9,57.44c.1,0,.1-.07.11-.14h-.23c0,.07.03.14.12.14Z"/>
        <path class="cls-5" d="m95.38,59.2c-.06,0-.11.04-.11.11,0,.15.03.27.23.26.09,0,.15-.04.18-.14-.06-.11-.15-.21-.3-.23Z"/>
        <path class="cls-5" d="m92.43,99.63c.17.09.17.29.31.4.06.03.11.02.17,0,.05.03.09.03.13,0,.34,0,.67.06,1.01.02.15.04.3.05.44.02v-1.38h-.77v.23h-.33v.13h-1.11c.06.08.08.18.11.28-.03.1,0,.2.04.3Z"/>
        <path class="cls-5" d="m90.66,101.2c.19-.12.17-.27.15-.42h-.21c0,.14-.01.28.05.42Z"/>
        <path class="cls-5" d="m94.67,62.46c.09-.2.07-.34-.02-.47-.06.15-.07.28.02.47Z"/>
        <path class="cls-5" d="m91.96,99.05h-.11s.05.02.07.02c.01,0,.03,0,.04-.02Z"/>
        <path class="cls-5" d="m93.53,62.08c.01-.11-.12-.23-.32-.24.02.13.03.26.05.38h0s0,.03,0,.04c.01.1.03.2.04.3,0,.06.05.11.08.16.05.06.12.09.2.04.06-.04.07-.11.05-.16-.07-.17-.14-.32-.12-.52Z"/>
        <path class="cls-5" d="m91.7,61.87c-.01-.12-.11-.13-.21-.12-.1.01-.11.09-.11.17,0,.11.03.21.07.3h.3c-.02-.12-.04-.24-.05-.35Z"/>
        <path class="cls-5" d="m94.05,61.44c.03-.23-.05-.45-.08-.67-.01-.09-.1-.11-.19-.1-.11,0-.12.09-.11.16,0,.07.04.14.06.2-.08.2-.11.37.11.48.1.05.19.06.21-.07Z"/>
        <path class="cls-5" d="m94.05,62.65s.03.07.07.08c.05,0,.09,0,.11-.05.02-.04,0-.08-.05-.13-.05.03-.11.05-.14.1Z"/>
        <path class="cls-5" d="m87.26,58.03s.07-.08.11-.08c.26-.03.31-.16.31-.4,0-.08,0-.17-.02-.25h-3.17l-.02,1.72h3.62c-.04-.06-.08-.11-.13-.17-.15-.34-.55-.47-.7-.81Z"/>
        <path class="cls-5" d="m94.32,59.48s.04,0,.05-.02h-.11s.04.02.06.02Z"/>
        <path class="cls-5" d="m91.42,60.09c-.03-.16-.13-.31-.08-.49.01-.05.02-.1,0-.14h-.34c.02.24.09.45.08.67,0,.08-.03.21.11.2.13,0,.24-.08.21-.24Z"/>
        <path class="cls-5" d="m97.53,60.11c0-.06-.02-.12-.02-.18-.02-.2,0-.4-.06-.59-.03-.08-.07-.13-.17-.12-.09.01-.16.06-.14.15.06.26.03.52.08.77.02.11.05.28.21.26.18-.02.12-.18.1-.29Z"/>
        <path class="cls-5" d="m97.28,113.99v-1.29h-.87v1.71h1.94c0-.14,0-.28,0-.42h-1.07Z"/>
        <path class="cls-5" d="m99.76,52.76c-.08.01-.09.07-.07.12.01.03.08.05.11.04.04,0,.07-.04.06-.09-.02-.04-.04-.08-.1-.07Z"/>
        <path class="cls-5" d="m100.26,52.22s.02.04.04.05v-.17s-.06.07-.04.12Z"/>
        <path class="cls-5" d="m99.81,52.34c-.09-.04-.13,0-.14.07,0,.05.04.07.08.09.06.02.13.02.15-.04.03-.07-.05-.09-.09-.11Z"/>
        <path class="cls-5" d="m98.47,57.29c-.04-.33-.06-.66-.08-.99,0-.1,0-.19-.13-.18-.1.01-.09.1-.09.17.03.36.06.71.09,1.05,0,.1.03.2.16.17.14-.03.07-.13.06-.22Z"/>
        <path class="cls-5" d="m97.63,61.61c.07-.27-.09-.49-.06-.73,0,0-.08-.04-.12-.03-.04,0-.11.06-.11.06.1.22-.01.52.3.7Z"/>
        <path class="cls-5" d="m98.34,55.85c.11.03.11-.06.11-.13,0-.06.01-.15-.08-.17-.09,0-.09.07-.1.12,0,.07-.02.16.07.18Z"/>
        <path class="cls-5" d="m100.95,113.99c0,.12,0,.23,0,.35,0,.02,0,.05,0,.07h.32c0-.14,0-.28,0-.42h-.3Z"/>
        <path class="cls-5" d="m91.58,61.39c0-.06-.02-.12-.03-.18.02-.12.04-.24,0-.36-.04-.11-.13-.12-.23-.09-.1.03-.13.11-.07.18.11.14.1.28.06.44-.02.1.02.19.14.2.13.01.15-.09.14-.18Z"/>
        <path class="cls-5" d="m92.71,56.67s-.03.07-.05.11h.2c-.01-.23-.1-.46-.12-.72-.24.26.04.44-.04.61Z"/>
        <path class="cls-5" d="m100.28,49.32s.05-.08,0-.11c-.02-.02-.05-.03-.09-.04-.16.06-.09.14-.03.24.03-.04.08-.05.11-.08Z"/>
        <path class="cls-5" d="m100.16,50.22s.03.08.09.08c.05,0,.09-.03.09-.08,0-.05-.03-.08-.09-.08-.05,0-.08.03-.1.08Z"/>
        <path class="cls-5" d="m99.6,49.99c-.05,0-.09.01-.1.06-.01.07.02.12.09.13.05.01.09-.02.1-.06.01-.07-.02-.12-.09-.13Z"/>
        <path class="cls-5" d="m99.86,106.9c0-.11,0-.23,0-.35,0-.03.02-.06.02-.09v-.05h-.76v-1.25h-.94v-2.42h.94v-.89h.64v-.79s-.08,0-.11-.01c-1.42-.24-2.85-.25-4.28-.28-.71-.02-1.43-.01-2.14-.07-.04,0-.07,0-.1,0v.06h-.26c-.21.1-.36.28-.52.43-.11.1.06.31.04.5-.49.04-.99.07-1.49.11-.21.02-.42.03-.61.09v.16h2.35v.41h.97l-.1.15.24.18h.38l.04.18h2.09v.29h-6.61l-.14.12h-.73l-.28.25h-1.66l-.38.35h-.52l-.08.05h-.43l-.09.09h-.55l-.03.13h-.55l-.05.05h-.35l-.08.08h-.32l-.26.11h-2.48s.05,0,.05,0l2.43.05v.07h.46l.47.19h.4l.24.21h.52v.14h.56l.11.1h.45l.08.07h.47v.08h1.62v.2h.42v.23h7.01v.28h-.38v.16h-3.47v2.61h.18v-1.99h7.55Z"/>
        <path class="cls-5" d="m99.32,112.22s-.01,0-.02-.01c-.12-.06-.24-.04-.37,0-.2,0-.4,0-.6,0,0-.34,0-.68.01-1.01,0,0,0,0,0,0h-3.81v1.08h2.74v-.04h2.04Z"/>
        <path class="cls-2" d="m103.45,70.5s.03.08.12.08c.01-.05.03-.08.02-.1-.05-.08.04-.27-.12-.24-.15.03-.05.17-.02.26Z"/>
        <path class="cls-2" d="m103.6,74.12c.01.07.05.12.12.1.02,0,.04-.07.05-.11,0-.04-.02-.09-.07-.1-.09-.01-.09.06-.1.11Z"/>
        <path class="cls-2" d="m101.44,115.09s0,.01,0,.02h.22c-.07-.04-.13-.08-.22-.02Z"/>
        <path class="cls-2" d="m103.66,67.7c.01-.06-.02-.11-.08-.14-.07-.03-.07.03-.08.07-.01.06,0,.12.06.14.05.02.08-.02.09-.07Z"/>
        <path class="cls-2" d="m103.12,81.62c.07.02.14.03.18-.05.04-.07.07-.15.02-.21-.08-.1-.16-.19-.17-.31-.02-.17.25-.12.26-.29-.15-.1-.3-.07-.33.09-.04.25-.16.52.04.77Z"/>
        <path class="cls-2" d="m88.45,71.6c.09-.2-.03-.39-.02-.58,0-.14-.09-.14-.19-.13-.09,0-.14.05-.12.15.02.12.02.24.03.45,0,.08,0,.25,0,.42,0,.15.1.23.25.19.16-.04.14-.15.06-.24-.07-.09-.05-.17-.01-.25Z"/>
        <path class="cls-2" d="m89.08,71.47c.02-.14.03-.31-.1-.43-.06-.06-.12-.11-.2-.06-.06.03-.08.13-.05.16.13.17.09.36.07.53-.03.27.04.48.26.65.14-.09.18-.22.11-.3-.16-.18-.12-.35-.09-.55Z"/>
        <path class="cls-2" d="m103.56,71.21c.15-.11.07-.23,0-.35-.03-.05-.09-.02-.12.01-.1.11.01.19.04.28,0,.02.04.03.07.05Z"/>
        <path class="cls-2" d="m103.36,69.81c.06,0,.11-.02.13-.09.02-.06-.03-.07-.07-.09-.06,0-.11.01-.13.09-.01.05.03.09.06.09Z"/>
        <path class="cls-2" d="m103.48,67.24c.11,0,.17-.07.18-.17,0-.05-.02-.08-.08-.1-.11,0-.17.05-.2.15-.02.07.01.12.09.12Z"/>
        <path class="cls-2" d="m102.54,77.56c-.02.09-.03.2.07.25.12.06.25.04.35-.06.1-.09.07-.19-.03-.28-.06-.05-.13-.1-.04-.18.12-.12.05-.25.04-.39-.04-.53-.13-1.06-.11-1.59,0-.11-.03-.22-.17-.23.12-.05.16-.15.13-.26-.03-.11-.16-.08-.24-.08-.28,0-.28.03-.1.39.05.02.16.05.16.05-.21.09-.24.22-.1.39-.19.32-.02.65-.04.97-.02.34.14.66.07,1Z"/>
        <path class="cls-2" d="m102.29,59.72c.04-.16.14-.32-.07-.45.05.15-.12.31.07.45Z"/>
        <path class="cls-2" d="m101.69,52.14c-.14.04-.11.18-.17.28-.03.05.03.09.08.08.14-.03.17-.15.18-.27,0-.04-.02-.08-.09-.08Z"/>
        <path class="cls-2" d="m102.31,50.29s-.01-.07-.03-.08c-.05-.03-.08,0-.11.04-.02.03,0,.07.03.08.05.02.09,0,.11-.04Z"/>
        <path class="cls-2" d="m103.36,115.03c-.08,0-.12.03-.14.07h.22s-.04-.07-.08-.07Z"/>
        <path class="cls-2" d="m102.91,54.23c-.09.02-.11.07-.1.13.01.05.07.06.11.04.06-.02.12-.05.08-.12-.02-.03-.07-.04-.1-.06Z"/>
        <path class="cls-2" d="m103.17,62.28c-.05,0-.09.04-.09.09,0,.08.08.07.13.06.05,0,.08-.05.06-.1-.02-.05-.06-.06-.11-.05Z"/>
        <path class="cls-2" d="m102.96,114.54q.11-.22,0-.49c-.1.17-.11.35,0,.49Z"/>
        <path class="cls-2" d="m102.94,115.06s-.03.03-.03.05h.13s0-.03-.02-.04c0-.01-.06-.02-.08,0Z"/>
        <path class="cls-2" d="m103.1,52.45c.07-.03.07-.11.02-.15-.15-.13-.04-.33-.15-.48-.18.16-.17.36-.11.56.03.1.15.12.24.07Z"/>
        <path class="cls-2" d="m102.66,113.64s.04-.05.04-.07c0-.05-.04-.08-.09-.07-.04.02-.07.07-.05.11.02.05.07.06.11.03Z"/>
        <path class="cls-2" d="m102.63,115.08s-.06,0-.08.02h.13s-.03-.02-.05-.02Z"/>
        <path class="cls-2" d="m102.56,113.95c0,.25-.1.41.03.55.14-.15.14-.29-.03-.55Z"/>
        <path class="cls-2" d="m102.66,107.78c-.1.15-.1.31,0,.46,0,.01.03.01.06.03.15-.15.15-.31.07-.49,0-.02-.11-.02-.13,0Z"/>
        <path class="cls-2" d="m101.63,105.57c-.07,0-.11.04-.12.11-.02.07-.02.16.05.2.06.03.11,0,.13-.07.02-.09.04-.17-.06-.23Z"/>
        <path class="cls-2" d="m101.87,104.29c0-.05-.03-.09-.08-.09-.09,0-.09.07-.09.13,0,.05.02.09.08.09.08,0,.1-.06.1-.12Z"/>
        <path class="cls-2" d="m101.92,113.74c-.13-.01-.15.11-.13.19.05.15.02.3.08.45,0-.17.08-.31.12-.46.02-.07.02-.18-.08-.19Z"/>
        <path class="cls-2" d="m103.46,50.29c0-.66-.08-1.33-.15-2-.02-.21-.21-.15-.34-.15-.13,0-.23.04-.21.22.03.24.03.49.04.73h.09v.72h-.03c.02.24.05.49.05.73,0,.12.04.16.14.18.29.07.38,0,.38-.29,0-.05,0-.09.01-.16Z"/>
        <path class="cls-2" d="m105.86,73.57c-.05.19-.08.38-.11.58-.01.06.02.12.1.13.04,0,.07-.01.09-.04v-.72s-.06.02-.07.06Z"/>
        <path class="cls-2" d="m105.79,51.69c.05,0,.09-.03.09-.08,0-.07-.03-.11-.11-.1-.05,0-.07.05-.07.07,0,.08.05.1.09.11Z"/>
        <path class="cls-2" d="m105.89,90.99c.03.2.03.4.05.6v-.72s-.06.06-.05.11Z"/>
        <path class="cls-2" d="m105.94,76.22s0,0,0,0c-.06,0-.09.03-.09.08,0,.02.02.06.04.07.02.01.05.01.06,0v-.15Z"/>
        <path class="cls-2" d="m105.84,60.2c-.03.12-.02.2.09.22v-1.66c-.15-.04-.33-.04-.35.04-.05.17-.06.37.21.4-.02.33.12.66.05,1Z"/>
        <path class="cls-2" d="m105.89,60.79c-.06.23,0,.46,0,.68,0,.05.02.09.04.12v-.87s-.04.03-.05.07Z"/>
        <path class="cls-2" d="m105.92,74.63c-.09-.02-.12.02-.13.09,0,.06-.02.13.06.15.04,0,.07,0,.09-.03v-.2s-.01,0-.02,0Z"/>
        <path class="cls-2" d="m104.66,60.09c-.11,0-.09.1-.11.16.01.06,0,.14.09.12.08,0,.08-.08.08-.14,0-.06,0-.14-.07-.15Z"/>
        <path class="cls-2" d="m104.23,60.3c0-.32.09-.65-.05-1-.39.39-.05.69.05,1Z"/>
        <path class="cls-2" d="m103.54,54.26c-.17-.01-.15.12-.17.22-.01.08.04.12.1.12.14,0,.2-.09.21-.2.01-.1-.07-.13-.15-.14Z"/>
        <path class="cls-2" d="m104.8,50.8c-.08,0-.15.04-.12.16.07.06,0,.24.2.23.13,0,.14-.09.15-.18,0-.16-.09-.21-.23-.2Z"/>
        <path class="cls-2" d="m105.94,90.67v-.19s-.04.05-.05.08c0,.05.02.08.05.11Z"/>
        <path class="cls-2" d="m105.94,89.89v-.19c-.03.06-.04.13,0,.19Z"/>
        <path class="cls-2" d="m93.38,68.86s0-.02,0-.03h-.04s.02.02.03.03Z"/>
        <path class="cls-2" d="m105.94,75.73v-.17s-.02-.01-.04-.01c-.08-.01-.16,0-.19.09-.02.06.03.08.07.09.05.01.11.02.16,0Z"/>
        <path class="cls-2" d="m103.38,86.43c.02-.06-.03-.07-.07-.08-.05-.01-.08.02-.09.06-.01.05.03.07.07.09.06.01.08-.02.09-.07Z"/>
        <path class="cls-2" d="m103.1,83.52c-.05,0-.08.04-.07.09,0,.05.05.06.1.06.04,0,.1-.01.1-.06,0-.07-.06-.09-.12-.09Z"/>
        <path class="cls-2" d="m102.84,89.2c.02.06.07.09.13.08.08,0,.11-.06.09-.12-.02-.05-.09-.08-.15-.06-.04.01-.09.03-.07.09Z"/>
        <path class="cls-2" d="m102.87,86.36c-.05-.19-.04-.38-.06-.58,0-.11-.13-.12-.22-.07-.09.05-.1.14-.11.24.09.13.03.29.06.43.02.11.11.15.21.13.09-.01.13-.09.11-.17Z"/>
        <path class="cls-2" d="m102.66,79.21c.07-.02.08-.08.07-.14-.04-.13-.08-.25-.14-.42-.14.19-.13.34-.08.48.02.05.08.1.15.08Z"/>
        <path class="cls-2" d="m103.82,74.9c-.18-.02-.17.15-.18.26-.03.18-.07.36-.05.54.02.16.18.32-.01.45.01.11.02.19.13.2.1,0,.12-.07.14-.15.04-.14-.23-.21-.1-.36.16-.19.12-.43.18-.65.04-.14.07-.26-.1-.28Z"/>
        <path class="cls-2" d="m103.35,87.56c-.07.26-.04.43-.02.65q.14-.34.02-.65Z"/>
        <path class="cls-2" d="m104.78,73.55c-.12.19.08.34.08.53.09-.15.13-.31.17-.47.02-.07,0-.13-.07-.15-.09-.04-.15.03-.19.1Z"/>
        <path class="cls-2" d="m103.51,89.11c-.06-.02-.15,0-.16.05-.02.08.04.13.13.13.06,0,.12-.01.14-.08,0-.08-.06-.09-.12-.1Z"/>
        <path class="cls-2" d="m101.77,88.1c.02-.19.08-.38-.04-.57q-.3.28-.19.75v.03s.04-.01.04-.01c.08.04.17.08.25.02.06-.04.03-.1-.03-.14,0-.03,0-.05-.04-.07Z"/>
        <path class="cls-2" d="m93.3,69.82s.03.1.05.1c.06,0,.1-.03.11-.09.05-.19.08-.38-.13-.54-.07.19-.06.36-.03.54Z"/>
        <path class="cls-2" d="m102.11,67.61s0,.08.04.11c.07,0,.1-.06.1-.12,0-.02-.01-.07-.03-.07-.07-.02-.1.02-.11.08Z"/>
        <path class="cls-2" d="m93.33,69.03s.06.02.08,0c.07-.06.04-.12-.03-.16-.07.04-.09.09-.05.16Z"/>
        <path class="cls-2" d="m89.66,71.72s-.06.07-.05.11c0,.05.03.09.09.08.05-.01.05-.06.05-.11-.01-.04-.03-.1-.09-.08Z"/>
        <path class="cls-2" d="m101.8,87.15c.02-.12,0-.24,0-.36,0-.11-.05-.17-.16-.18-.13,0-.2.06-.24.17-.03.08.02.15.04.23,0,.03-.03.08-.03.12,0,.16.08.27.24.28.2.02.15-.16.16-.26Z"/>
        <path class="cls-2" d="m92.69,72.32c-.06.07.01.14,0,.21-.02.08,0,.16.09.18.06.02.13-.01.16-.07.04-.07.06-.14-.01-.21-.07-.06-.12-.15-.23-.12Z"/>
        <path class="cls-2" d="m105.02,85.44s-.06.02-.07.04c-.02.05,0,.09.06.09.02,0,.07-.02.07-.04.02-.05-.01-.08-.06-.1Z"/>
        <path class="cls-2" d="m104.27,101.13c-.08,0-.17.04-.17.11,0,.06.07.17.11.18.09,0,.16-.08.17-.17,0-.06-.04-.11-.11-.12Z"/>
        <path class="cls-2" d="m104.53,97.63c-.09-.02-.07.07-.08.11,0,.09.03.17.11.19.05.01.11-.06.1-.13-.01-.07-.03-.16-.12-.17Z"/>
        <path class="cls-2" d="m105.08,113.89s.13.06.17.01c.11-.12,0-.21-.07-.38-.1.16-.23.24-.1.37Z"/>
        <path class="cls-2" d="m104.15,101.7c-.06,0-.07.04-.07.09,0,.06,0,.12.08.12.05,0,.08-.03.08-.08,0-.06-.02-.11-.09-.13Z"/>
        <path class="cls-2" d="m104.1,107.61c-.12.22-.24.44-.09.69-.15.23-.18.47-.1.73.01.04.1.05.12,0,.1-.24.18-.48.04-.73.26-.22.09-.46.04-.7Z"/>
        <path class="cls-2" d="m103.3,109.74s-.04-.05-.06-.05c-.03,0-.08,0-.08.01-.04.23-.22.46-.02.75.27-.23.12-.49.16-.71Z"/>
        <path class="cls-2" d="m103.22,109.04c.01.11-.16.22-.02.33.02.02.06.02.09.01.15-.07.11-.2.11-.32,0-.03-.01-.06-.02-.09.06-.42.19-.83.03-1.26-.08.44-.31.86-.19,1.32Z"/>
        <path class="cls-2" d="m104.76,76.64s0,.09.04.1c.04.01.08,0,.1-.04.02-.07-.02-.09-.07-.1-.02,0-.06.02-.07.03Z"/>
        <path class="cls-2" d="m104.77,69.98c.1,0,.15-.09.11-.2-.02-.05-.06-.1-.09-.15-.08.03-.08.1-.1.16-.02.08,0,.18.08.19Z"/>
        <path class="cls-2" d="m104.71,69.17c0-.06,0-.13-.07-.14-.11-.01-.09.08-.11.15.01.05,0,.13.09.12.07,0,.08-.07.09-.13Z"/>
        <path class="cls-2" d="m104.91,72.68s.09-.01.09-.07c-.01-.04-.03-.09-.09-.07-.02,0-.05.03-.06.05-.03.06.02.08.06.08Z"/>
        <path class="cls-2" d="m104.85,75.61c.01-.05-.01-.13-.09-.13-.17,0-.12.14-.14.22,0,.07,0,.15.08.14.15,0,.13-.14.15-.24Z"/>
        <path class="cls-2" d="m105.17,114.08c-.09.05-.08.14-.11.2-.03.08,0,.17.07.18.13.03.13-.09.13-.17,0-.07,0-.15-.1-.21Z"/>
        <path class="cls-2" d="m102.98,113.49c-.05,0-.08.04-.09.09,0,.07.03.12.11.11.05,0,.07-.05.07-.1,0-.05-.04-.09-.09-.09Z"/>
        <path class="cls-2" d="m105.06,84.51c-.06-.16-.12-.31-.08-.48.01-.06-.02-.13-.09-.14-.11-.01-.12.08-.14.15-.01.06,0,.12,0,.28,0,.04,0,.17.11.28.05.05.11.06.17.03.05-.03.05-.08.04-.12Z"/>
        <path class="cls-2" d="m95.17,70.11c-.09,0-.15.06-.11.15.06.13-.02.34.2.36.15.01.13-.14.14-.24,0-.15-.02-.28-.22-.27Z"/>
        <path class="cls-2" d="m100.48,66.28s.03-.05.05-.07h-.1s.04.04.05.07Z"/>
        <path class="cls-2" d="m99.09,67.63s.05-.07,0-.11c-.07-.02-.12.01-.15.06-.02.02-.03.05-.03.07h.17s.01-.02.02-.03Z"/>
        <path class="cls-2" d="m100.31,67.14c.08-.01.21,0,.21-.12,0-.08-.1-.11-.18-.11-.08,0-.14.04-.16.12,0,.07.06.11.12.1Z"/>
        <path class="cls-2" d="m97.15,67.12c.09,0,.13-.05.14-.13,0-.05-.02-.09-.07-.1-.1-.01-.13.05-.14.13,0,.05.02.09.07.1Z"/>
        <path class="cls-2" d="m97.8,66.81c-.09.02-.1.1-.11.17,0,.07.05.12.12.11.08-.01.15-.06.13-.15-.01-.08-.05-.15-.14-.13Z"/>
        <path class="cls-2" d="m97.21,67.66s.03-.06.03-.09c0-.05-.02-.08-.07-.1,0,0-.01,0-.02,0v.19h.06Z"/>
        <path class="cls-2" d="m100.45,71.11c.1,0,.18-.02.16-.15-.02-.15-.01-.32-.21-.34-.1-.01-.14.09-.15.23.06.07,0,.25.2.26Z"/>
        <path class="cls-2" d="m100.99,77.17c-.13-.48.02-.96-.04-1.44-.05.01-.09,0-.1.02-.31.47-.17,1.01-.2,1.52,0,.07.07.14.16.13.13-.02.21-.12.18-.23Z"/>
        <path class="cls-2" d="m100.41,71.57c.11.01.18-.07.19-.16.01-.08-.05-.14-.15-.16-.08.03-.18.06-.19.17,0,.09.07.14.15.15Z"/>
        <path class="cls-2" d="m99.17,66.48c.15.01.14-.14.13-.27h-.23c-.05.12-.1.25.1.27Z"/>
        <path class="cls-2" d="m92.74,69.9c0-.09-.08-.12-.15-.14-.05-.01-.06.05-.06.09,0,.09.05.13.12.14.07,0,.09-.04.09-.09Z"/>
        <path class="cls-2" d="m100.22,69.02c-.07.18.07.3.01.44-.03.08-.03.16.09.16.08,0,.19-.03.2-.1.01-.16.15-.3.12-.49-.15-.04-.29.05-.42-.01Z"/>
        <path class="cls-2" d="m95.85,70.52s-.03.04-.05.06c0,.06.04.12.1.13.06.02.07-.03.07-.08,0-.07-.06-.09-.12-.11Z"/>
        <path class="cls-2" d="m101.59,84.26c0-.09.01-.18,0-.27-.03-.13-.11-.23-.26-.21-.14.02-.21.13-.2.26,0,.07.05.13.03.22-.05.2.04.33.26.33.25,0,.19-.19.17-.33Z"/>
        <path class="cls-2" d="m98.93,70.06c.34-.45.35-.7.12-1.08-.03-.04-.07-.06-.12-.05-.06,0-.08.06-.07.1.09.31,0,.64.07,1.04Z"/>
        <path class="cls-2" d="m101.48,85.53c.27,0,.18-.22.17-.38,0-.03,0-.06,0-.09.05-.18-.03-.31-.2-.31-.22,0-.3.13-.21.34.01.03.01.06,0,.09-.03.19,0,.36.23.35Z"/>
        <path class="cls-2" d="m98.93,70.85s.04.08.1.09c.05,0,.1-.02.11-.07.02-.22.09-.43.06-.65-.01-.1-.07-.13-.15-.12-.09,0-.17.05-.14.14.04.09.03.17,0,.29.09.08,0,.21.03.33Z"/>
        <path class="cls-2" d="m100.96,77.71c-.05-.04-.12.01-.16.06-.11.17-.04.27.18.36.04-.17.13-.31-.03-.42Z"/>
        <path class="cls-2" d="m101.45,83.65c.18-.03.08-.17.08-.26,0-.12-.05-.24-.07-.36-.02-.14-.08-.24-.24-.21-.15.03-.18.15-.18.28.08.11,0,.24.04.36.06.19.2.22.37.19Z"/>
        <path class="cls-2" d="m101.36,82.56c.09,0,.13-.05.14-.14.05-.44.16-.89.05-1.34-.02-.06-.1-.13,0-.19.06-.03.17-.02.11-.14-.04-.09-.13-.07-.21-.07-.17,0-.18.13-.2.26-.08.52-.1,1.05-.24,1.55.11.1.23.06.33.07Z"/>
        <path class="cls-2" d="m95.27,69.92c.15-.07.12-.19.09-.31.06-.23-.02-.44-.14-.63-.02-.06,0-.1,0-.15h-.16c0,.09-.04.17-.05.26-.02.06-.02.12.02.17,0,.18-.03.36-.02.54,0,.16.12.2.26.12Z"/>
        <path class="cls-2" d="m100.3,67.93s-.02,0-.04.01h.08s-.03,0-.05-.01Z"/>
        <path class="cls-2" d="m93.16,70.31c-.06.23.18.42.05.68.3-.05.37-.19.28-.39-.04-.1-.09-.19-.07-.3.02-.09.03-.2-.1-.22-.16-.01-.15.13-.17.23Z"/>
        <path class="cls-2" d="m97.15,68.85s.04-.01.06-.02h-.13s.05.03.07.02Z"/>
        <path class="cls-2" d="m100.22,85.05c-.09,0-.13.07-.14.15,0,.11.06.17.16.18.07,0,.17,0,.16-.1,0-.12-.07-.2-.19-.22Z"/>
        <path class="cls-2" d="m100.28,74.15c0-.1-.07-.13-.15-.14-.09,0-.14.02-.16.12-.03.21-.07.42-.1.61,0,.09,0,.17.02.24.01.08.05.14.15.13.07,0,.11-.08.1-.13-.03-.2.03-.38.12-.56.04-.08.02-.18.03-.27Z"/>
        <path class="cls-2" d="m99.68,85.07c-.13,0-.15.09-.17.17-.03.09-.04.2.06.23.09.03.19-.04.2-.13.01-.09.04-.21-.09-.27Z"/>
        <path class="cls-2" d="m98.26,82.04c.07.02.19.01.2-.07.05-.21-.17-.16-.27-.24-.02.12-.12.25.06.31Z"/>
        <path class="cls-2" d="m98.55,84.76c-.13-.02-.16.06-.16.16,0,.04-.03.09-.03.13,0,.14-.1.36.11.39.27.03.15-.23.19-.34,0-.08,0-.13,0-.17,0-.07.01-.16-.1-.17Z"/>
        <path class="cls-2" d="m100.21,83.36c0-.06-.06-.1-.12-.12-.07,0-.11.03-.12.1,0,.06,0,.12.08.12.08,0,.16-.01.16-.11Z"/>
        <path class="cls-2" d="m98.35,82.44c0-.08-.08-.07-.14-.07-.06.01-.13.02-.1.1.02.06.1.06.16.05.05,0,.09-.04.08-.09Z"/>
        <path class="cls-2" d="m100.18,84.49c.16-.09.18-.19.17-.3,0-.13-.07-.25-.22-.22-.12.03-.05.15-.04.23.02.08.05.17.09.28Z"/>
        <path class="cls-2" d="m100.05,78.92c-.03-.18-.21-.18-.33-.26-.05.13.04.24.04.36,0,.1.04.18.17.16.15-.03.14-.15.12-.25Z"/>
        <path class="cls-2" d="m99.72,77.68c-.17.11-.07.27-.07.41,0,.04.04.08.06.12,0,.04,0,.09,0,.13,0,.05-.01.13.08.11.08-.01.06-.08.05-.14,0-.04-.03-.08-.04-.12.02-.03.04-.05.05-.08.06-.15.08-.3-.05-.43-.02-.02-.06-.03-.08-.02Z"/>
        <path class="cls-2" d="m99.98,75.31c-.12.15-.1.3.05.45.05-.16.15-.3.03-.46,0-.01-.07-.01-.08,0Z"/>
        <path class="cls-2" d="m97.16,71.07c.19-.3.03-.59.03-.87,0-.03-.02-.06-.03-.09-.05-.25.1-.49.07-.75-.17.02-.23.11-.22.22,0,.18.02.35.03.53-.06.05-.06.11-.01.17-.02.26-.15.54.12.8Z"/>
        <path class="cls-2" d="m93.24,71.2c-.06.03-.07.11-.03.16.11.14.03.3.06.44.02.09-.02.24.16.22.13-.01.18-.1.18-.23-.07-.16-.02-.36-.18-.5-.06-.05-.1-.13-.18-.09Z"/>
        <path class="cls-2" d="m94.81,71.28c.04-.07-.08-.11-.16-.12-.08,0-.17,0-.19.09-.02.09-.02.18-.03.28.02.13.02.27.09.39.04.07.11.11.2.1.11-.01.08-.11.1-.18.05-.19-.13-.37,0-.57Z"/>
        <path class="cls-2" d="m101.28,65.19c.05,0,.08-.04.08-.09,0-.06,0-.13-.08-.13-.07,0-.1.05-.11.11,0,.07.04.11.11.11Z"/>
        <path class="cls-2" d="m100.39,68.86s.08,0,.1-.03h-.25s.1.03.14.03Z"/>
        <path class="cls-2" d="m100.89,73.74c.07-.06.1-.17.2-.11.1.05.05.17.02.25-.09.19-.02.35.1.5-.2.16,0,.3.01.45,0,.06.04.07.04.02-.02-.16.23-.28.05-.45.07-.22-.02-.45,0-.67.03-.42.03-.42-.38-.42-.09,0-.18.03-.27.04-.27-.04-.5.17-.77.1-.53,0-1.07-.07-1.6.05-.15.12-.05.24-.01.37,0,0,0,.01,0,.01.07.24.14.49.09.75,0,.08.01.15.02.23.05.38-.09.77.16,1.13.04.05.06.2-.05.24-.28.11-.16.14.02.2.13.05.25.01.37.04.17.03.23-.05.23-.2,0-.3.14-.59.07-.9.14-.03.04-.24.2-.26.05.11-.08.28.13.38.02-.18.04-.33.06-.48.07-.27-.08-.41-.31-.5.35-.08.36-.08.41-.46.02-.18.11-.31.21-.45.04-.01.1-.04.13-.03.22.11.24.11.49.01.04-.01.09.01.14.02,0,.17.08.28.25.14Z"/>
        <path class="cls-2" d="m97.1,71.89c.05.22,0,.45.02.67,0,.07-.04.16.07.18.11.02.1-.08.12-.15.09-.33,0-.67.06-1.05-.23.09-.31.2-.27.35Z"/>
        <path class="cls-2" d="m100.55,72.13c.03-.05.09-.1.09-.15,0-.06-.06-.11-.13-.09-.06.02-.12.06-.09.13.02.04.08.07.13.11Z"/>
        <path class="cls-2" d="m97.8,71.97s-.02.05-.04.07c-.06.06-.02.11.03.15.05.04.09,0,.12-.03.05-.06.05-.11-.03-.14-.03-.01-.06-.02-.07-.05Z"/>
        <path class="cls-2" d="m97.81,71.31c-.12.1-.11.24-.13.38-.02.1.05.17.12.23.03-.07.07-.13.08-.2.01-.13.14-.26.02-.39-.02-.02-.07-.03-.08-.02Z"/>
        <path class="cls-2" d="m98.09,82.82s-.02.05-.03.09c-.02.07-.03.15.06.19.05.02.09-.02.1-.07.02-.07.03-.15-.14-.22Z"/>
        <path class="cls-2" d="m97.85,69.81c.02-.06.04-.12-.02-.16-.07-.04-.15-.05-.22-.02-.08.04-.07.12-.04.19.04.08.08.16.16.29.06-.15.09-.23.12-.31Z"/>
        <path class="cls-2" d="m99.03,67.16c.08,0,.16-.03.18-.12.02-.09-.06-.13-.14-.14-.09,0-.14.05-.15.13,0,.07.05.13.11.13Z"/>
        <path class="cls-2" d="m99.12,101.87v.89h-.94v2.42h.94v1.25h.76v.05s0,0,0,0c.1-.06.19-.11.29-.17,0,0,.01,0,.01,0,.17-.13.11-.31.09-.47,0-.05.02-.09.03-.14.11-.44.15-.88.14-1.33,0,0,0-.02,0-.02.05-.11.03-.24.13-.33.65.05,1.31.07,1.97.06.38.1.78.02,1.17.08.08.01.17-.02.18-.11.01-.09-.06-.13-.14-.15-.03,0-.07,0-.09,0-.17.07-.22-.01-.24-.16-.01-.1-.05-.21-.08-.31.04-.09.04-.17,0-.26-.06-.65-.05-1.3.04-1.94.04-.16.05-.3-.19-.3-.26,0-.53,0-.8,0-.28,0-.28.01-.28.37,0,.04-.02.07-.03.11-.05,0-.11-.01-.16-.02-.01-.05-.02-.11-.03-.16,0-.08-.01-.15-.02-.23-.01-.26-.02-.27-.27-.11-.07.05-.15.05-.22.05-.3,0-.6,0-.9-.02-.2,0-.4-.07-.56.13-.04.05-.09.06-.15.06v.79h-.64Z"/>
        <path class="cls-2" d="m96.37,64.52v.48h.97v.18c.09,0,.18,0,.26-.01.21-.01.34-.03.35-.25,0-.18.09-.21.28-.21,1.48.02,2.95.03,4.43.04.19,0,.37.01.54-.11.13-.1.31-.06.46-.07.43-.01.85.02,1.28-.03.35-.04.47-.13.5-.48.02-.17.03-.34.04-.5.01-.17.02-.34.03-.55-2.83.1-5.66.31-8.49.49v1.03h-.67Z"/>
        <path class="cls-2" d="m94.49,100.07c.05,0,.1-.02.15-.04,1.19,0,2.38.04,3.57,0,.04.05.08.09.15.1.94.04,1.89.11,2.84.05.03,0,.06,0,.09,0,.19.02.5-.09.32.31-.03.06.05.16.13.15.06-.01.15-.09.13-.17-.07-.22.03-.41.07-.62.03-.13.1-.14.21-.12-.02.15-.13.3.01.44.37.1.75.07,1.13.09.14,0,.2-.08.16-.21-.06-.17-.13-.34-.07-.53.07-.22-.03-.38-.2-.53-.28-.25-.5-.56-.74-.84-.43-.51-.54-1.11-.46-1.72.04-.25-.06-.4-.13-.58-.03-.08-.11-.1-.2-.08-.08.02-.09.08-.09.14,0,.2,0,.41,0,.69-.16-.31-.21-.59-.2-.81.01-.22.13-.34.35-.35.11,0,.22.01.33.02.06.03.11.08.17.07.27-.02.57.04.78.14.22.1.53-.12.66.2,0,0,.09,0,.13-.02.61-.26,1.26-.19,1.89-.14.08,0,.16.02.24.03v-.18c-.08,0-.16,0-.24,0-.34-.01-.69.1-1.01-.09.1-.18-.05-.27-.13-.39-.18-.43-.18-.43-.57-.42-.17-.02-.34.01-.51-.06.14-.32.2-.72.06-.82-.12-.09-.16-.07-.01-.19.13-.1-.04-.12-.13-.14,0-.03-.01-.06-.02-.09.14,0,.28,0,.43,0q.47,0,.44-.46s-.01-.06-.02-.09c.02-.07.05-.15-.07-.19h0c0-.31.02-.62-.04-.92.04-.25,0-.57.15-.74.23-.28.17-.55.14-.83,0-.19.1-.39-.04-.58-.9-.02-1.8-.04-2.7-.06-.12-.2.06-.18.16-.21.11-.04.17-.12.06-.19-.18-.1-.25-.2-.16-.4.03-.07-.05-.14-.13-.15-.11-.01-.14.07-.13.15.04.23.09.47.14.69-.15.1-.3.01-.43.09-.17-.03-.34-.05-.51-.02-.27-.11-.54-.08-.81-.04-.25,0-.51,0-.76-.01-.42-.04-.83-.05-1.25,0-.95-.02-1.89-.04-2.84-.06-.1-.04-.2-.05-.31-.01-.09,0-.18,0-.27-.01-.1-.04-.19-.04-.29-.01-.29-.03-.57-.04-.86,0-.38-.04-.76-.07-1.15,0-.21-.03-.43-.07-.65-.02-.29-.07-.59-.03-.89-.04-.11,0-.26.02-.27-.12,0-.31-.27-.58-.13-.92.05-.12.05-.28-.17-.28,0-.03,0-.06,0-.09,0-.06,0-.12,0-.19,0-.06,0-.12,0-.18.07-.46-.14-.94.1-1.38.12-.11.2-.34.13-.39-.22-.16-.08-.2.02-.33.2-.26.14-.43-.16-.57-.11-.05-.22-.12-.36-.11-.04-.03-.07-.07-.11-.1.03-.08.06-.17.09-.25,0-.04,0-.07,0-.11.02-.07-.01-.18.08-.2.14-.02.09.12.12.19,0,.01,0,.03,0,.04,0,.11.01.21.16.22.14,0,.28.02.4-.07.07-.02.1-.06.1-.13.28-.07.57.02.86-.03.06.07.12.08.19,0,.11-.01.24,0,.3-.12.03,0,.05,0,.08.01.01.02.01.05,0,.07,0,.06,0,.1.08.08.13,0,.26,0,.39-.01.1.05.2.1.3.15.05.09.17.2.15.27-.1.41.17.79.06,1.2-.04.15.09.25.26.25.16,0,.29-.05.31-.22.01-.12,0-.24,0-.36-.06-.57-.13-1.15-.2-1.72.01-.12.04-.24.04-.36,0-.19.03-.4-.17-.53-.09-.12-.2-.18-.36-.16-.09.01-.19.02-.27-.04.03-.06.06-.12.09-.18,0-.03,0-.06,0-.09,0-.06,0-.11,0-.17v-.03c.06-.05.15-.11,0-.18-.04-.02-.08-.05-.12-.07,0-.03,0-.06-.01-.09.02-.15.07-.3-.08-.41,0-.01-.02-.03-.02-.03-.02,0-.05.01-.07.02-.1,0-.19,0-.29,0,0-.05,0-.09,0-.14.03-.08.08-.19,0-.25-.16-.12-.08-.27-.1-.4.05-.32-.12-.61-.09-.92.04-.18.07-.37.11-.55.04-.03.07-.05.11-.08,1.11,0,2.21.11,3.32.05.32.07.65,0,.98.03.24.02.2-.13.15-.27-.05-.39.17-.75.13-1.16-.19-.08-.39-.05-.59-.03q-.39-.05-.36-.41s.01-.06.02-.09c.06-.02.09-.06.08-.12.06-.01.12-.02.18-.03.19.11.4.04.6.06.17.02.26-.04.28-.22.02-.19.02-.4.17-.56.09.01.17.02.26.03.08.05.16.08.21-.04.06-.5.24-.98.22-1.49.16-.4.14-.84.26-1.25.05-.16-.05-.23-.2-.22-.41,0-.82,0-1.23.01-.03,0-.05,0-.08-.01-.32-.13-.64-.11-.97-.04-.37,0-.74,0-1.11-.01-.04-.05-.09-.05-.13,0-1.42,0-2.85.03-4.27-.02-.54-.12-1.08-.12-1.62,0-.09,0-.19,0-.28,0-.41-.14-.84-.08-1.26-.06-.27.01-.49-.02-.71-.15-.03-.01-.05-.03-.06-.07,0,0,0,0,0,0h-1.32v1.41h-.73v.97h.91v.44h9.2v.85h-3.63v.32h-2.54l-.3.2h-4.6v.48h-2.18v1.61h1.88v.4h.85v.36h4.96v.52h-2.24v3.95h2.91v1.01h-.55v.68h.85v1.33h-1.39v1.09h-1.03v.76h.79v2.25h9.32v1.17h.97v.6h.88v1.57h2.09v.36h-8.23v3.3h1.51v1.38Z"/>
        <path class="cls-2" d="m101.22,109.15c-.07,0-.1.04-.11.1-.01.06,0,.14.05.15.08.02.14-.05.15-.12.01-.06-.01-.11-.09-.13Z"/>
        <path class="cls-2" d="m98.63,58.33c-.02-.19.11-.46-.31-.62.21.45,0,.86.23,1.24.12-.21.09-.42.08-.63Z"/>
        <path class="cls-2" d="m99.84,109.04c-.14-.01-.24.07-.27.2-.05.2,0,.39.17.53.28-.07.2-.32.24-.49.02-.08,0-.23-.14-.24Z"/>
        <path class="cls-2" d="m98.59,59.26c-.11-.01-.13.06-.15.14-.02.1-.07.23.08.25.11.02.16-.08.17-.17.02-.09-.01-.18-.11-.22Z"/>
        <path class="cls-2" d="m101.45,107c.15-.23.2-.47.09-.73-.12.24-.15.48-.09.73Z"/>
        <path class="cls-2" d="m101.15,113.47c-.11.07-.19.13-.19.23,0,.1,0,.19,0,.29h.3c-.01-.17-.04-.34-.1-.52Z"/>
        <path class="cls-2" d="m100.34,52.09s-.02.01-.03.02v.17s.04,0,.06-.01c.03-.03.06-.07.06-.11,0-.05-.03-.08-.09-.06Z"/>
        <path class="cls-2" d="m94.81,86.93s-.06.02-.07.04c-.02.07.02.11.09.13.05,0,.09-.01.11-.06-.01-.07-.06-.1-.13-.1Z"/>
        <path class="cls-2" d="m98.35,113.99c0-.35.01-.69.03-1.04.18.04.3.06.43.08-.05.2.18.45-.12.61-.03.02,0,.09.05.11.23.1.47.19.72.18.11,0,.18-.15.09-.19-.3-.12-.09-.29-.09-.45,0-.21.04-.44.08-.62.08-.29-.07-.35-.23-.45h-2.04v1.77h1.07Z"/>
        <path class="cls-2" d="m98.36,110.95c.09-.3.09-.3-.25-.31-.03,0-.06-.02-.09-.03-.06-.07-.03-.15-.04-.22-.03-.2.17-.47.02-.56-.21-.12-.49-.17-.76-.16-.27,0-.53,0-.8-.07.24,0,.47-.02.71,0,.29.03.55-.13.84-.08.1.02.14-.11.15-.2.02-.15.02-.31.04-.46,0-.07,0-.19.1-.17.26.05.26-.21.38-.27.25-.13.22-.35.29-.55.1.13.04.26.09.36.03.07.08.13.18.07.17-.16.1-.35.08-.54,0,0,0-.02,0-.02.03-.04.05-.09.08-.13.1,0,.19.07.29,0,.12-.22.18-.45.19-.69h-7.55v4.27h6.03c0-.07,0-.15.01-.22Z"/>
        <path class="cls-2" d="m100.35,50.85s-.01-.07-.04-.09v.17s.04-.06.04-.08Z"/>
        <path class="cls-2" d="m95.21,81.88s-.03.07-.02.08c.09.09.19.07.29.03.01,0,.02-.02.04-.06-.1-.07-.18-.16-.31-.05Z"/>
        <path class="cls-2" d="m101.27,76.78s.07.11.15.08c.05-.02.06-.06.07-.1.02-.25,0-.5-.12-.73-.03.19-.08.36-.15.54-.03.08,0,.15.05.22Z"/>
        <path class="cls-2" d="m97.58,61.79c-.15,0-.11.12-.11.18,0,.24.04.45.14.65.03.05.09.08.16.07.08-.01.1-.08.09-.14-.03-.2-.06-.39-.1-.59-.02-.1-.07-.18-.18-.17Z"/>
        <path class="cls-2" d="m100.33,70.28c.17.01.23-.12.21-.28-.02-.1.03-.27-.17-.25-.2.02-.13.16-.11.27.02.09-.08.25.07.26Z"/>
        <path class="cls-2" d="m101.81,86.33c.05-.06-.11-.61-.19-.64-.13-.04-.25-.02-.32.12-.04.07-.03.15,0,.24,0,.06,0,.14,0,.21.02.13.1.22.25.24.14.02.19-.09.26-.17Z"/>
        <path class="cls-3" d="m122.51,79.75c.53-.49,1.24-.79,1.78-1.27.91-.8.89-1.62.04-2.45-.71-.69-1.48-1.36-2.07-2.13-1.51-1.91-2.47-4-2.31-6.51.18-2.89.27-5.8-1.13-8.5-.09-.19-.11-.45-.07-.66.73-3.42-.68-5.9-3.43-7.73,0,.17-.02.35-.09.52-.09-.21-.12-.42-.09-.63-.07-.04-.13-.09-.2-.13-4.74-2.94-9.76-3.8-14.99-3.05.01.2-.13.31-.06.55-.19-.25-.19-.26.04-.55-1.2.18-2.42.44-3.64.78-.74.2-1.47.47-2.18.79,0,0,0,.01,0,.02-.09.24-.12.49-.14.74,0,.09-.01.19-.02.28.03.19.06.38.1.57-.16.06-.31.04-.46.02-.16.03-.32.03-.47,0-.06,0-.13.01-.19.02,0,0,0,0,0,0-.03.06-.06.12-.09.18,0,.26-.1.51-.15.76-.03.14-.05.29-.03.44.08.11.12.23.07.37.04.09.05.18.03.28.08.14.08.3.07.46.02.16-.02.29-.22.28-.63-.03-1.26.04-1.89-.05-.28-.04-.6,0-.9.03-.22.03-.38-.01-.42-.25-.06,0-.12,0-.18,0-.06.2-.09.46-.41.23-.06-.04-.13-.02-.17.02-.15.13-.28.08-.42,0-.1-.05-.2-.07-.31-.03-.21.07-.28-.06-.31-.22-.06,0-.12,0-.18,0-.15.25-.23.25-.39,0-.03-.02-.06-.03-.09-.05-.03.02-.06.03-.1.05-.18.26-.3.26-.48,0-.61-.04-1.21-.04-1.82-.02.04.49.33.89.51,1.33.05.02.06.05,0,.07l-.02.03c-.05.09-.13.07-.2.03l-.02-.02v-.02c-.32,0-.66.02-1,.03,0,.04-.02.09-.03.13.46,0,.92.02,1.38.03.1-.01.22-.02.25.07.11.32.37.26.62.28.45.02.91.06,1.36.09.12,0,.28,0,.27.17,0,.15-.09.27-.26.28-.33.01-.66.03-.99-.02-.06,0-.12-.05-.17,0,0,.15.13.11.21.11.14,0,.28,0,.43,0,.66,0,.71.06.59.69.16.13.14.31.12.49.04.2.08.4.11.6,0,.08.02.17.02.25,0,.24-.05.38-.31.4-.04,0-.07.06-.11.08.15.34.55.47.7.81.05.05.09.11.13.17.07.1.14.2.23.3.04.05.08.1.12.15.19.27.3.6.36.92.06.31.09.63.13.95.02.03.05.05.07.08h.02c.18.13.32.27.46.46.09.12.2.25.34.36.12.09.25.16.4.2.36.09.39.1.4.39,0,.03,0,.05,0,.08,0,.13.03.26.1.37.07.04.17.06.2.11.1.17.16.14.28.01.06-.06.21-.03.32-.03.6,0,1.2-.02,1.79-.02.11,0,.16-.1.25-.12.08,0,.1.06.12.12.03,0,.06.01.09.02.04,0,.07,0,.11,0,.13.03.24-.05.36-.04.19,0,.42.02.4.31.03,0,.06.01.09,0,.06-.38.07-.38.39-.26.06.02.1.15.19.06.26-.27.42-.13.57.12.39-.02.78-.05,1.17-.07,2.83-.18,5.66-.39,8.49-.49-.01.22-.02.39-.03.55-.01.17-.03.34-.04.5-.04.36-.15.44-.5.48-.43.05-.86.02-1.28.03-.16,0-.33-.03-.46.07-.17.12-.36.11-.54.11-1.48-.01-2.95-.02-4.43-.04-.18,0-.27.03-.28.21,0,.23-.14.24-.35.25-.09,0-.18,0-.26.01-.77.03-1.54-.02-2.3-.04-.26,0-.56.21-.8-.08-.03-.03-.05-.02-.08,0-.2.23-.48.12-.72.12-.32,0-.65,0-.97,0-2.53-.01-5.07.02-7.6-.06-.11,0-.26-.04-.28.1-.04.44-.35.34-.62.33-.18,0-.36-.09-.47.17-.04.1-.2.18-.37.15-.62-.12-1.21.05-1.82.13-.15.02-.33-.02-.43.14,0,.11.02.23.02.34,0,0,.02.02.02.02.05,0,.07.04.06.08.14.12.47.04.42.37,0,.06.08.1.14.09.42-.08.41.21.44.47.03.2.05.4.07.6.02.23.06.37.39.34.16-.02.37-.09.54,0,.07-.04.11-.1.1-.19-.02-.11-.03-.23.12-.24.13,0,.17.11.17.22,0,.06,0,.12.01.18,0,0,.02,0,.02,0,.05,0,.08.02.08.07.08.06.1.14.1.23.03.04.07.08.1.12.15,0,.29-.01.44-.02.12-.03.18.04.19.14.02.17.05.34-.09.48,0,.04,0,.08,0,.12.12.13.08.3.08.45.01.03.02.06.03.09.07.06.06.12-.01.17,0,0,0,.02,0,.02.02.17.32.22.2.45.01.06.03.12.04.17.08.04.1.11.11.19,0,.12.01.24.02.37q.08.82.92.84c.12,0,.26-.06.33.09.02.03.04.05.07.08.16.17.15.37.11.58,0,0,0,0,0,0,0,.03.03.05.06.07.22.13.44.17.71.15.42-.02.85-.08,1.26.06.09,0,.19,0,.28,0,.54-.12,1.08-.11,1.62,0,1.42.05,2.85.02,4.27.02.05-.05.09-.05.13,0,.37,0,.74,0,1.11.01.33-.07.65-.09.97.04.03,0,.05,0,.08.01.41,0,.82,0,1.23-.01.16,0,.25.06.2.22-.12.41-.1.85-.26,1.25.01.51-.16.99-.22,1.49-.05.12-.13.09-.21.04-.09-.01-.17-.02-.26-.03-.15.16-.14.37-.17.56-.02.18-.11.24-.28.22-.2-.02-.41.05-.6-.06-.06.01-.12.02-.18.03,0,.06-.01.11-.08.12,0,.03-.02.06-.02.09q-.03.36.36.41c.2-.01.4-.04.59.03.05.4-.17.76-.13,1.16.05.14.09.29-.15.27-.33-.03-.65.04-.98-.03-1.11.06-2.21-.05-3.32-.05-.04.03-.07.05-.11.08-.04.18-.07.37-.11.55-.03.31.14.61.09.92.02.14-.06.29.1.4.08.06.03.16,0,.25,0,.05,0,.09,0,.14.1,0,.19,0,.29,0,.02,0,.05-.02.07-.02,0,0,.02.02.02.03.14.12.1.27.08.41,0,.03,0,.06.01.09.04.02.08.05.12.07.14.08.05.13-.02.18v.03c0,.06,0,.11,0,.17,0,.03,0,.06,0,.09-.03.06-.06.12-.09.18.08.06.18.06.27.04.16-.02.27.04.36.16.2.13.17.34.17.53,0,.12-.03.24-.04.36.07.57.14,1.15.2,1.72.01.12.02.24,0,.36-.02.17-.15.22-.31.22-.17,0-.3-.1-.26-.25.11-.41-.16-.79-.06-1.2.02-.07-.1-.18-.15-.27-.1-.05-.2-.1-.3-.15-.13,0-.26,0-.39.01-.08.02-.09-.02-.08-.08,0-.02,0-.05,0-.07-.03,0-.05,0-.08-.01-.06.13-.19.11-.3.12-.06.08-.13.07-.19,0-.29.05-.58-.04-.86.03,0,.07-.03.11-.1.13-.12.09-.26.08-.4.07-.15,0-.16-.11-.16-.22,0-.01,0-.03,0-.04-.02-.07.02-.21-.12-.19-.09.01-.05.13-.08.2,0,.04,0,.07,0,.11-.03.08-.06.17-.09.25.04.03.07.07.11.1.14-.01.24.06.36.11.3.14.37.31.16.57-.1.13-.24.18-.02.33.07.05-.01.28-.13.39-.24.45-.03.93-.1,1.38,0,.06,0,.12,0,.18,0,.06,0,.12,0,.19,0,.03,0,.06,0,.09.22,0,.22.16.17.28-.14.33.12.61.13.92,0,.14.16.11.27.12.3,0,.59-.03.89.04.22-.05.43-.01.65.02.38-.06.76-.03,1.15,0,.29-.03.57-.03.86,0,.1-.03.2-.03.29.01.09,0,.18,0,.27.01.1-.04.21-.03.31.01.95.02,1.89.04,2.84.06.42-.04.83-.03,1.25,0,.25,0,.51,0,.76.01.27-.04.55-.08.81.04.17-.03.34-.01.51.02.13-.07.28.01.43-.09-.04-.22-.1-.45-.14-.69-.01-.08.02-.16.13-.15.09,0,.17.08.13.15-.1.2-.02.3.16.4.11.06.05.15-.06.19-.11.03-.28,0-.16.21.9.02,1.8.04,2.7.06.14.18.05.38.04.58.02.29.09.55-.14.83-.14.18-.11.49-.15.74.06.3.04.61.04.92h0c.11.03.08.11.07.19,0,.03.02.06.02.09q.02.47-.44.46c-.14,0-.28,0-.43,0,0,.03.01.06.02.09.08.02.25.04.13.14-.15.12-.11.1.01.19.14.11.08.51-.06.82.16.07.34.04.51.06.39,0,.39,0,.57.42.08.12.23.21.13.39.32.19.67.08,1.01.09.08,0,.16,0,.24,0,.14,0,.29.01.48.06-.18.13-.34.14-.48.12-.08,0-.16-.03-.24-.03-.64-.05-1.28-.12-1.89.14-.04.02-.12.03-.13.02-.13-.31-.44-.09-.66-.2-.21-.1-.5-.15-.78-.14-.05,0-.11-.05-.17-.07-.11,0-.22-.02-.33-.02-.23,0-.34.13-.35.35-.02.23.04.5.2.81,0-.28,0-.49,0-.69,0-.06.01-.12.09-.14.08-.02.17,0,.2.08.07.19.16.33.13.58-.09.61.03,1.22.46,1.72.24.28.45.59.74.84.16.14.27.31.2.53-.07.19.01.36.07.53.04.13-.02.22-.16.21-.38-.02-.76,0-1.13-.09-.14-.14-.03-.29-.01-.44-.1-.01-.18,0-.21.12-.04.2-.14.4-.07.62.03.08-.07.16-.13.17-.08.02-.16-.09-.13-.15.19-.39-.12-.29-.32-.31-.03,0-.06,0-.09,0-.95.05-1.89-.01-2.84-.05-.07,0-.11-.05-.15-.1-1.19.04-2.38.01-3.57,0-.05.02-.1.03-.15.04-.15.03-.29.02-.44-.02-.34.04-.67-.02-1.01-.02-.04.04-.09.04-.13,0-.06.02-.12.03-.17,0-.14-.11-.14-.32-.31-.4-.03-.1-.06-.19-.04-.3-.04-.1-.06-.2-.11-.28-.05-.06-.11-.1-.23-.09-.03.03-.06.07-.09.09-.02.01-.03.02-.04.02-.02,0-.05-.01-.07-.02-.18-.05-.37-.12-.55-.18-.07,0-.14,0-.2,0-.02.06-.04.12-.05.18-.05.21-.07.42-.24.59,0,.29,0,.57,0,.86,0,.04,0,.09,0,.13,0,.05,0,.1.01.15.02.15.04.31-.15.42-.07-.14-.06-.28-.05-.42,0-.05,0-.09,0-.14,0-.05,0-.1,0-.15,0-.36-.03-.71.09-1.06,0-.13.09-.25.12-.38.02-.08.02-.16-.03-.24-.06.01-.13.05-.18.04-.23-.06-.39-.05-.49.22-.06.17-.16.15-.26-.07-.08-.08-.18-.11-.19.03-.01.23-.13.29-.34.26-.24-.04-.34.23-.53.25-.17.01-.31-.19-.52-.11-.05.02-.1.07-.14.11-.01.35-.17.68-.15,1.03.07.14.08.28.06.43-.01.13.07.18.17.22.19.03.32-.08.47-.15.05.04.1.08.14.13.05,0,.11,0,.16,0,.11-.06.11-.13.05-.23-.08-.13-.25-.28.03-.39-.02-.2-.04-.4-.06-.59.1-.05.17,0,.24.01.21.02.26.13.23.31-.05.26,0,.52,0,.77,0,.12.04.21.14.27.1.02.17.09.29.1.16,0,.13.12.06.22.01.16-.04.36.27.25.01,0,.03,0,.04-.01.19-.06.41-.07.61-.09.5-.04,1-.07,1.49-.11.02-.19-.15-.39-.04-.5.17-.15.31-.34.52-.43.08-.03.16-.06.26-.06.03,0,.06,0,.1,0,.71.06,1.42.06,2.14.07,1.43.03,2.86.04,4.28.28.03,0,.07.01.11.01.06,0,.11,0,.15-.06.15-.2.35-.14.56-.13.3.01.6.01.9.02.08,0,.15,0,.22-.05.25-.16.26-.15.27.11,0,.08.01.15.02.23.01.05.02.11.03.16.05,0,.11.01.16.02,0-.04.02-.07.03-.11,0-.35,0-.36.28-.37.26,0,.53,0,.8,0,.25,0,.24.13.19.3-.09.65-.1,1.29-.04,1.94.04.09.04.17,0,.26.03.1.07.21.08.31.02.15.07.23.24.16.03-.01.06,0,.09,0,.09.01.15.06.14.15-.01.09-.09.12-.18.11-.39-.06-.78.01-1.17-.08-.66.01-1.31-.01-1.97-.06-.11.09-.08.22-.13.33,0,0,0,.02,0,.02,0,.45-.03.9-.14,1.33,0,.05-.02.09-.03.14.01.17.08.34-.09.47,0,0-.01,0-.01,0-.1.06-.19.11-.29.17,0,0,0,0,0,0,0,.03-.02.06-.02.09.01.12.01.23,0,.35-.02.24-.07.47-.19.69-.09.07-.19.02-.29,0-.03.04-.05.09-.08.13,0,0,0,.02,0,.02.01.19.09.38-.08.54-.09.07-.14,0-.18-.07-.05-.11,0-.24-.09-.36-.08.2-.04.42-.29.55-.12.06-.12.32-.38.27-.1-.02-.1.1-.1.17-.01.15-.02.31-.04.46-.01.09-.05.22-.15.2-.29-.05-.55.11-.84.08-.23-.02-.47,0-.71,0,.27.07.53.07.8.07.27,0,.55.05.76.16.15.09-.05.36-.02.56.01.07-.02.15.04.22.03,0,.06.03.09.03.34,0,.33,0,.25.31-.02.07-.01.15-.01.22,0,0,0,0,0,0,0,.34,0,.68-.01,1.01.2,0,.4,0,.6,0,.12-.03.24-.05.37,0,0,0,.01,0,.02.01.16.1.31.16.23.45-.05.18-.09.4-.08.62,0,.16-.21.33.09.45.09.04.02.18-.09.19-.26.01-.49-.08-.72-.18-.05-.02-.08-.09-.05-.11.29-.16.07-.41.12-.61-.12-.02-.24-.05-.43-.08-.02.35-.02.7-.03,1.04,0,.14,0,.28,0,.42,0,.43,0,.86,0,1.28h2.57c.07-.43,0-.86.02-1.28,0-.02,0-.05,0-.07,0-.12,0-.23,0-.35,0-.1,0-.19,0-.29,0-.09.08-.16.19-.23.06.17.09.35.1.52.01.14.01.28,0,.42,0,.16-.02.32-.03.47-.02.28,0,.55.08.81h.1c0-.2-.04-.4.03-.58,0,0,0-.01,0-.02.09-.06.15-.02.22.02.03.02.06.03.09.03.19,0,.24.16.08.23-.19.08-.16.19-.14.32h2.96c-.02-.06,0-.14.06-.15.1-.02.12.07.13.15h5.34s.11-.07.05-.1c-.37-.18-.21-.46-.22-.79.37.28.51.62.74.89h.38c0-.06,0-.12,0-.18,0-.09-.03-.21.1-.21.12,0,.1.13.1.22,0,.07-.04.16.08.17.89,0,3.33.21,6.4.51-2.65-2.53-5.3-5.07-7.97-7.57-1.52-1.43-2.21-3.03-1.58-5.08,1.05-3.44,2.06-6.88,3.04-10.34.17-.61.44-.65.99-.65,1.95.02,3.92-.01,5.87-.04,2.03-.03,3.16-.76,3.46-2.53.13-.78-.22-1.68-.53-2.46-.25-.63-.43-1.05.31-1.51.99-.62,1.06-1.56.33-2.45.25-.37.6-.72.73-1.13.1-.35.08-1-.13-1.11-1.29-.71-.27-1.17.19-1.58Zm-36.3-25.89c.06,0,.13,0,.14.07,0,.08-.03.15-.12.16-.09.01-.14-.05-.15-.13,0-.08.07-.09.12-.1Zm1.12.92c-.24,0-.47,0-.71,0,0,0,0-.01,0-.02-.28,0-.57,0-.85,0-.07,0-.12-.05-.12-.12,0-.06.06-.11.13-.11.54-.03,1.07-.04,1.61,0,.08,0,.15.06.14.15-.02.1-.11.09-.19.1Zm1.05-.57c-.27.01-.54.01-.81.01-.25,0-.48-.14-.74-.04-.09.04-.17-.06-.18-.16-.01-.12.08-.16.18-.16.24,0,.47,0,.81,0,.18,0,.47-.04.75.03.07.02.16.04.16.14,0,.11-.07.18-.17.19Zm2.52,3.09c.03-.24.06-.47.04-.72.07.23.04.49.13.72,0,.02.01.03.02.05.03.07,0,.12-.09.12-.07,0-.11-.04-.1-.11,0-.02,0-.03,0-.05Zm.07,1.62c-.03-.12-.05-.24-.05-.36,0-.2-.04-.39-.06-.59-.01-.1-.04-.24.12-.26.17-.02.21.11.23.23.01.06,0,.12,0,.18-.05.25.1.48.07.73,0,.09,0,.14-.1.16-.01,0-.02,0-.03,0h-.03c-.06,0-.11-.03-.13-.09Zm.12,1.21c0-.22-.07-.43-.08-.67,0-.09,0-.19.01-.29.18.08.3.17.32.29,0,.04,0,.09,0,.14-.05.18.05.33.08.49.03.16-.08.24-.21.24-.14,0-.12-.12-.11-.2Zm.2,1.24c.03-.16.05-.3-.06-.44-.05-.07-.02-.15.07-.18.1-.03.19-.02.23.09.04.12.03.24,0,.36,0,.06.03.12.03.18,0,.1,0,.2-.14.18-.11-.01-.16-.11-.14-.2Zm.46,1.24c-.13-.13-.23-.25-.3-.39-.04-.09-.07-.19-.07-.3,0-.08,0-.15.11-.17.1-.01.2,0,.21.12.01.11.04.23.05.35.02.12.02.24,0,.39Zm.99-5.35c-.12-.17-.14-.32-.08-.48.01-.04.03-.07.05-.11.08-.17-.2-.35.04-.61.01.26.1.49.12.72,0,.15-.01.31-.12.48Zm1.02,2.07s.09.04.08.08c0,.02,0,.03-.01.04-.02.04-.07.05-.11.05-.03,0-.04-.02-.05-.05,0-.02,0-.04,0-.06,0-.05.04-.07.09-.07Zm-.16,3.43c-.08.05-.15.02-.2-.04-.04-.05-.07-.1-.08-.16-.02-.1-.03-.2-.04-.3,0-.01,0-.03,0-.04-.02-.12-.03-.25-.05-.38.2.01.33.13.32.24-.02.2.05.35.12.52.02.06.02.12-.05.16Zm.13-1.74c-.02-.06-.05-.13-.06-.2,0-.07,0-.16.11-.16.08,0,.17.02.19.1.04.22.11.44.08.67-.02.13-.11.12-.21.07-.22-.12-.19-.29-.11-.48Zm.19,1.34c-.05-.15-.09-.29-.13-.43-.03-.09.01-.14.11-.16.1-.01.18,0,.18.13,0,.16.02.32-.16.46Zm.31.32s-.07.06-.11.05c-.05,0-.1-.04-.07-.08.03-.04.09-.07.14-.1.05.04.07.08.05.13Zm.13-3.22s-.03.02-.05.02c-.03,0-.05,0-.06-.02-.05-.03-.06-.08-.05-.14,0-.06.04-.13.11-.11.1.02.06.12.09.19,0,.03-.01.05-.03.07Zm-.09-5.37c-.07,0-.12-.05-.11-.11.01-.08.08-.12.15-.12.09,0,.13.05.12.11-.01.08-.09.11-.17.11Zm.4,8.37c-.1-.18-.09-.32-.02-.47.1.13.11.27.02.47Zm.81-12.07c.17-.01.07.11.06.19-.02.11.18.21,0,.32,0,.08.12.14.12.23,0,.03-.02.05-.05.09-.03.02-.1.03-.12.01,0,0,0,0,0,0-.13-.11.05-.21.02-.32-.2-.04.01-.2-.09-.29-.07-.06-.04-.21.07-.21Zm.03,9.19c-.2.01-.23-.11-.23-.26,0-.08.04-.12.11-.11.15.02.24.12.3.23-.03.11-.09.14-.18.14Zm.5-2.28c0,.07,0,.14-.11.14-.09,0-.11-.07-.12-.14,0-.02,0-.05,0-.07,0-.08,0-.2.13-.2.13,0,.09.13.11.21,0,.02,0,.04,0,.06Zm2.26-1.62c0-.06.01-.12.1-.12.1.02.08.11.08.17,0,.07,0,.16-.11.13-.09-.02-.08-.11-.07-.18Zm-1.05,4.47c-.05-.25-.01-.52-.08-.77-.02-.09.04-.14.14-.15.09-.01.14.04.17.12.07.19.04.39.06.59,0,.06.02.12.02.18.01.12.07.27-.1.29-.16.02-.19-.16-.21-.26Zm.23.7s.13.03.12.03c-.03.23.13.46.06.73-.31-.18-.19-.48-.3-.7,0,0,.07-.06.11-.06Zm.32,1.84c-.07.01-.13-.01-.16-.07-.1-.19-.14-.4-.14-.65,0-.06-.03-.17.11-.18.12,0,.17.07.18.17.03.2.07.39.1.59,0,.06,0,.12-.09.14Zm.48-5.34c-.03-.35-.06-.69-.09-1.05,0-.06-.02-.15.09-.17.13-.01.13.07.13.18.02.33.05.66.08.99,0,.09.08.19-.06.22-.12.03-.15-.07-.16-.17Zm.37.99c.02.21.04.42-.08.63-.22-.38-.02-.79-.23-1.24.41.16.29.42.31.62Zm-.1,1.32c-.16-.03-.1-.15-.08-.25.01-.07.04-.15.15-.14.1.04.13.12.11.22-.02.09-.07.19-.17.17Zm.94-10.51c.16-.12.12-.33.26-.52.06.24,0,.42-.04.6-.04.14-.14.16-.24.1-.08-.05-.05-.13.02-.18Zm.12,1.05c-.07-.02-.11-.06-.09-.13,0-.05.05-.07.1-.06.07.02.1.06.09.13,0,.05-.05.08-.1.06Zm.21,2.74s-.1-.02-.11-.04c-.02-.05,0-.11.07-.12.06,0,.08.03.1.07.02.05-.02.09-.06.09Zm.1-.47c-.02.07-.09.07-.15.04-.04-.02-.09-.04-.08-.09.01-.06.05-.11.14-.07.04.02.12.04.09.11Zm.44-2.23s-.04.08-.09.08c-.06,0-.08-.03-.09-.08.01-.05.04-.07.1-.08.06,0,.09.03.09.08Zm-.14-1.05s.07.02.09.04c.04.04.03.08,0,.11-.03.03-.09.04-.11.08-.06-.09-.12-.18.03-.24Zm-.03.33c.05.09.18.2-.02.19-.15,0-.03-.1.02-.19Zm0,1.37c0-.06.01-.12.08-.13.03,0,.05,0,.07.01.03.02.04.05.04.09,0,.02-.02.06-.04.08,0,0-.02.01-.03.02-.06.02-.11,0-.12-.08Zm.21,1.39s-.04.02-.06.01c-.02,0-.03-.02-.04-.05-.01-.05,0-.09.04-.12.01,0,.02-.01.03-.02.06-.01.09.01.09.06,0,.04-.03.08-.06.11Zm1.23.24s-.11-.03-.08-.08c.06-.09.04-.24.17-.28.07,0,.09.04.09.08,0,.12-.04.24-.18.27Zm.57-2.24s.06-.07.11-.04c.02.01.02.05.03.08-.03.04-.07.06-.11.04-.04-.01-.04-.04-.03-.08Zm.12,9.46c-.19-.14-.02-.3-.07-.45.21.13.11.29.07.45Zm.64-5.31s-.1,0-.11-.04c-.02-.06.01-.11.1-.13.03.02.09.03.1.06.04.07-.02.1-.08.12Zm.04-2.58c.11.15,0,.35.15.48.05.04.06.12-.02.15-.1.04-.21.02-.24-.07-.06-.19-.07-.39.11-.56Zm.25,10.6c-.06.01-.13.02-.13-.06,0-.04.04-.08.09-.09.05,0,.09,0,.11.05.02.05-.02.09-.06.1Zm-.15-11.69c-.1-.03-.14-.06-.14-.18,0-.24-.03-.49-.05-.73-.02-.16-.03-.33-.04-.49,0-.08,0-.16-.01-.23,0-.24-.01-.49-.04-.73-.02-.19.08-.22.21-.22.13,0,.32-.06.34.15.06.67.14,1.34.15,2,0,.07-.01.11-.01.16,0,.29-.09.36-.38.29Zm.41,3.87c-.07,0-.12-.04-.1-.12.02-.1,0-.23.17-.22.08,0,.16.04.15.14-.02.11-.08.21-.21.2Zm.75,5.7c-.1-.31-.44-.61-.05-1,.14.35.04.68.05,1Zm.41.08c-.09.01-.08-.07-.09-.12.02-.06,0-.17.11-.16.07,0,.07.09.07.15,0,.06,0,.13-.08.14Zm.24-9.2c-.2.02-.13-.17-.2-.23-.03-.12.04-.15.12-.16.14,0,.24.04.23.2,0,.1-.02.17-.15.18Zm-22.14,16.69c-.07,0-.11-.05-.11-.12,0-.06,0-.12.08-.13.1,0,.12.07.14.13,0,.08-.04.11-.11.11Zm4.48,4.5s-.04-.04-.03-.09c0-.04.02-.09.08-.07.04.02.08.04.07.09-.01.04-.03.09-.12.06Zm.18-3.95c-.03-.08-.01-.15.07-.19.07-.03.15-.04.22.01.06.04.06.1.04.16-.04.09-.09.18-.14.27-.11-.06-.16-.16-.19-.25Zm.21.44c.08,0,.1.06.1.12-.02.07-.02.16-.11.17-.1,0-.12-.07-.12-.15,0-.09.03-.14.13-.14Zm.23,3.15c-.05.05-.12.03-.16-.02-.21-.21-.25-.67-.07-.99-.02-.02-.03-.05-.03-.08,0-.01-.02-.02-.03-.04-.01-.13-.06-.32.14-.31.17,0,.15.18.14.32-.02.31.04.62-.1.91-.02.04,0,.08.05.11.03.02.11.04.05.09Zm.57.08c-.15.03-.25-.04-.25-.19,0-.17,0-.34,0-.42-.01-.21-.01-.33-.03-.45-.01-.1.03-.14.12-.15.1,0,.2,0,.19.13,0,.19.11.38.02.58-.04.08-.06.17.01.25.08.1.1.21-.06.24Zm.03-5.16c-.01.09-.08.11-.16.12-.08.01-.1-.05-.11-.11,0-.1.07-.12.15-.12.07,0,.11.04.12.1Zm-.04-.62s.07.02.08.07c0,.02-.01.06-.03.07-.04.02-.08,0-.1-.04-.02-.04,0-.08.05-.1Zm.67,6.01c-.22-.18-.29-.38-.26-.65.02-.17.06-.36-.07-.53-.03-.04-.02-.13.05-.16.08-.04.14,0,.2.06.13.12.12.29.1.43-.03.2-.07.38.09.55.07.08.03.21-.11.3Zm.64-.41c-.06.02-.08-.03-.09-.08,0-.05,0-.1.05-.11.06-.02.07.04.09.08,0,.05,0,.1-.05.11Zm1.55-4.3c-.02-.08.05-.09.1-.11.08,0,.16.02.18.11.03.09-.06.1-.11.1-.08.01-.16,0-.18-.1Zm.27.41c-.07,0-.12-.03-.11-.09,0-.05.05-.07.1-.07.05,0,.09.02.09.07,0,.04-.03.08-.08.09Zm.07-1.01s-.03.02-.06.02c-.03,0-.06,0-.09-.02-.02-.02-.04-.04-.04-.08,0-.08.05-.13.13-.15.07.01.1.07.1.13,0,.04-.02.07-.05.1Zm.95,2.83s.01-.1.06-.09c.07.01.14.05.15.14,0,.04-.02.08-.09.09-.07,0-.12-.05-.12-.14Zm.41,2.8c-.03.06-.1.09-.16.07-.09-.03-.11-.1-.09-.18.02-.07-.05-.14,0-.21.12-.04.17.06.23.12.07.06.05.14.01.21Zm-.19-6.34s.02-.01.03-.02c0,0,.02.02.02.03,0,.03-.02.04-.04.02,0,0,0-.02,0-.03Zm.64,2.52s0,.02,0,.03c-.01-.01-.02-.02-.03-.03-.08-.1-.05-.21-.03-.33.26.07.11.21.07.33Zm.02.21s-.07,0-.08,0c-.05-.07-.02-.12.05-.16.07.04.1.1.03.16Zm-.08.24c.21.17.18.35.13.54,0,.06-.05.1-.11.09-.02,0-.03-.07-.05-.1-.03-.17-.04-.34.03-.54Zm0,.81c.13.01.11.12.1.22-.02.11.02.2.07.3.09.2.02.34-.28.39.13-.26-.11-.45-.05-.68.02-.1,0-.24.17-.23Zm.1,1.94c-.18.02-.13-.13-.16-.22-.04-.14.04-.3-.06-.44-.04-.05-.03-.13.03-.16.09-.04.13.04.18.09.16.14.11.34.18.5,0,.13-.05.22-.18.23Zm1.4-.17c-.02.07.01.16-.1.18-.09,0-.15-.02-.2-.1-.07-.12-.07-.26-.09-.39,0-.1,0-.19.03-.28.02-.09.11-.1.19-.09.08,0,.2.05.16.12-.12.2.06.38,0,.57Zm.19-2.06c-.01-.18.01-.36.02-.54-.04-.05-.04-.11-.02-.17.02-.09.05-.17.05-.26,0-.05,0-.1-.04-.15-.04-.07-.07-.14-.03-.21.05-.09.1-.21.23-.19.15.02.12.17.12.25,0,.11-.09.19-.13.3-.02.04-.03.09,0,.15.12.19.19.4.14.63.03.12.06.24-.09.31-.15.08-.25.04-.26-.12Zm.24.82c-.22-.02-.14-.24-.2-.36-.04-.09.02-.14.11-.15.2,0,.22.12.22.27,0,.1,0,.25-.14.24Zm.29-4.74c-.02.05-.03.1-.05.16-.03.12-.04.25.01.41-.24-.12-.18-.29-.21-.41,0-.03-.02-.06-.04-.08-.4,0-.81-.02-1.21-.02-.37,0-.73.03-1.09.14-.07.02-.11-.01-.17-.04-.3-.16-.65-.03-.96-.12-.04-.01-.12.09-.17.14,0,.04.02.09,0,.13-.04.11-.07.29-.21.23-.15-.05-.02-.21,0-.31-.05-.12-.09-.22-.27-.19-.38.06-.76.07-1.13-.01-.24-.05-.24.19-.39.33-.08-.31-.24-.36-.53-.3-.28.05-.59.03-.9-.02-.28-.05-.59-.03-.88.02-.3.05-.59-.07-.89-.02-.08.01-.17-.06-.25-.09,0-.18.12-.15.2-.15,1.14,0,2.29,0,3.43,0,.41,0,.82-.01,1.23,0,.63.01,1.27.08,1.89.05.07,0,.14,0,.21-.01.54-.04,1.09.08,1.63-.03.18-.04.36.11.56.07.09,0,.22,0,.18.13Zm.36,4.83c-.06-.02-.09-.07-.1-.13.02-.02.04-.06.05-.06.06.02.11.05.12.11,0,.04-.01.09-.07.08Zm.17-4.78c-.06,0-.13,0-.15-.07-.03-.11.08-.1.13-.13.08-.01.15,0,.16.07.02.1-.06.12-.14.13Zm-1.23,21.16c-.07-.01-.11-.06-.09-.13,0-.02.05-.04.07-.04.06,0,.12.04.13.1-.02.05-.06.07-.11.06Zm.64-5.11c-.1.05-.2.06-.29-.03-.01-.01,0-.06.02-.08.13-.11.21-.02.31.05-.03.04-.03.05-.04.06Zm6.01-5.23s-.01.09-.07.1c-.08.02-.11-.03-.15-.08-.05-.06-.08-.14-.05-.22.06-.17.11-.35.15-.54.13.24.14.48.12.73Zm-.21-11.79c.08,0,.09.07.08.13,0,.05-.03.09-.08.09-.07,0-.1-.04-.11-.11.01-.06.04-.12.11-.11Zm-.49,3.11s.09,0,.11.04c0,.02-.02.06-.04.07-.04.03-.08,0-.11-.04-.01-.03,0-.06.03-.07Zm-.42,1.67c.2-.02.15.15.17.25.03.15-.04.29-.21.28-.15-.01-.06-.17-.07-.26-.02-.11-.09-.25.11-.27Zm.03.87c.2.02.19.19.21.34.02.13-.06.16-.16.15-.2-.01-.14-.2-.2-.26,0-.14.05-.24.15-.23Zm.04.64c.1.02.17.07.15.16-.01.1-.08.18-.19.16-.08,0-.15-.07-.15-.15,0-.11.11-.14.19-.17Zm.07.64c.07-.02.13.03.13.09,0,.05-.06.1-.09.15-.05-.04-.11-.07-.13-.11-.03-.07.03-.11.09-.13Zm0-2.37c0,.07-.12.1-.2.1-.12,0-.12-.08-.09-.16.05-.14-.09-.26-.01-.44.13.06.27-.03.42.01.03.19-.11.32-.12.49Zm-.08-1.3c-.14.02-.19-.09-.23-.18-.03-.05.01-.09.06-.11.01,0,.02,0,.04-.01.01,0,.03,0,.05.01.09.02.18.03.18.15,0,.06-.02.12-.1.13Zm-.1-2.19s.05-.07.05-.07c.11-.03.14,0,.16.04.05.09.02.15-.02.21-.02.02-.04.05-.05.07,0-.03-.03-.05-.05-.07-.06-.05-.13-.09-.09-.18Zm0,.88c.08,0,.18.03.18.11,0,.11-.13.1-.21.12-.06.01-.11-.03-.12-.1.02-.08.08-.13.16-.12Zm-.01,1.69c.12-.01.16.06.17.16,0,.03,0,.05-.01.06-.02.03-.06.04-.1.03-.05,0-.1-.02-.14-.03-.04-.02-.06-.04-.07-.09-.01-.08.07-.12.16-.13Zm-1.27-2.39s.03-.09.04-.12c0-.07-.03-.15-.02-.22.02-.08.09-.12.18-.1.11.02.12.09.06.16-.04.05-.05.11-.04.19,0,.03,0,.06,0,.09,0,.13.02.28-.13.27-.2-.02-.15-.15-.1-.27Zm0,.7c.08,0,.16.04.14.14-.02.08-.1.12-.18.12-.07,0-.11-.05-.11-.13,0-.08.06-.13.15-.13Zm-.14.68s.09-.08.15-.06c.06.03.03.07,0,.11,0,0-.01.02-.02.03-.03.04-.06.08-.11.07-.04-.01-.05-.04-.06-.07,0-.02,0-.05.03-.07Zm0,1.34c.05,0,.09,0,.12.05.24.38.22.63-.12,1.08-.08-.4.02-.72-.07-1.04-.01-.04.01-.09.07-.1Zm-.03,1.59c.02-.12.03-.2,0-.29-.03-.08.05-.13.14-.14.09,0,.14.02.15.12.03.22-.03.44-.06.65,0,.04-.05.07-.11.07-.06,0-.08-.04-.1-.09-.03-.12.06-.24-.03-.33Zm-.7,11.21c.1.08.32.03.27.24-.02.08-.13.09-.2.07-.19-.06-.08-.19-.06-.31Zm-.97-14.84c.05,0,.07.05.07.1-.01.07-.05.14-.14.13-.05,0-.08-.05-.07-.1,0-.08.04-.15.14-.13Zm-.07.58s0,0,.02,0c.05.02.08.05.07.1,0,.03-.02.06-.03.09-.02.03-.05.05-.11.04-.04,0-.09-.03-.07-.09.02-.06.04-.13.12-.14Zm0,1.14s.09.04.1.07c.02.06,0,.11-.05.14-.02.01-.04.02-.06.02-.02,0-.05,0-.07-.02-.02-.01-.03-.03-.04-.04-.03-.09.06-.12.12-.17Zm-.48-2.68c-.06,0-.13-.01-.11-.1.01-.07.07-.08.12-.07.07,0,.1.03.11.07,0,.08-.06.1-.12.1Zm.36,4.17c-.01-.18-.03-.35-.03-.53,0-.12.05-.2.22-.22.02.26-.12.5-.07.75,0,.03.02.06.03.09,0,.28.16.57-.03.87-.26-.25-.14-.53-.12-.8-.05-.06-.05-.11.01-.17Zm.27,2.49c-.02.07,0,.17-.12.15-.11-.02-.06-.11-.07-.18-.03-.22.03-.45-.02-.67-.03-.15.04-.26.27-.35-.06.38.02.72-.06,1.05Zm.01-6.64c-.07.02-.12,0-.14-.08,0-.09.07-.13.15-.12.04,0,.11.03.11.05.02.09-.05.13-.13.15Zm.29,3.68c.07-.03.15-.03.22.02.06.04.04.1.02.16-.03.08-.06.16-.12.31-.07-.14-.12-.21-.16-.29-.04-.07-.05-.15.04-.19Zm.28,2.53s-.07.07-.12.03c-.05-.04-.09-.09-.03-.15.02-.02.04-.04.04-.07.01.02.04.04.07.05.08.03.08.09.03.14Zm-.03-.44c0,.07-.05.13-.08.2-.07-.06-.14-.13-.12-.23.03-.13.01-.28.13-.38.01-.01.06,0,.08.02.12.13,0,.26-.02.39Zm-.06-4.63c-.07,0-.11-.04-.12-.11,0-.07.02-.16.11-.17.1-.02.13.05.14.13.01.09-.05.14-.13.15Zm.14-1.11c-.08,0-.14-.05-.14-.15.03-.11.1-.18.23-.16.07.01.11.07.09.13-.03.09-.07.18-.18.18Zm.28,17.04s-.05.08-.1.07c-.09-.04-.08-.12-.06-.19,0-.04.04-.09.03-.09.17.06.15.15.14.22Zm-.11-.56c-.03-.08.04-.09.1-.1.06,0,.13,0,.14.07,0,.05-.03.08-.08.09-.06,0-.13,0-.16-.05Zm.54,2.63c-.04.11.08.37-.19.34-.21-.02-.11-.24-.11-.39,0-.04.03-.09.03-.13,0-.1.04-.18.16-.16.11.01.09.1.1.17,0,.05,0,.09,0,.17Zm1.11.23c-.01.1-.11.17-.2.13-.1-.03-.09-.15-.06-.23.03-.08.04-.18.17-.17.12.06.1.18.09.27Zm.37-10.35c0,.06-.02.13-.1.13-.1.01-.14-.05-.15-.13,0-.08-.01-.15-.02-.24.03-.19.07-.4.1-.61.01-.1.07-.12.16-.12.09,0,.15.04.15.14,0,.09.01.19-.03.27-.09.18-.15.36-.12.56Zm-.11.78c-.15-.16-.17-.3-.05-.45.01-.01.07-.01.08,0,.12.16.03.3-.03.46Zm-.19,2.36s-.03.05-.05.08c.01.04.03.08.04.12.01.05.03.12-.05.14-.09.01-.07-.06-.08-.11,0-.04,0-.09,0-.13-.02-.04-.06-.08-.06-.12,0-.14-.1-.3.07-.41.02,0,.06,0,.08.02.13.13.1.28.05.43Zm-.08.89c0-.12-.09-.23-.04-.36.12.09.3.09.33.26.02.1.03.22-.12.25-.12.02-.17-.05-.17-.16Zm.21,4.33c0-.07.05-.1.12-.1.06.02.12.06.12.12,0,.09-.08.11-.16.11-.08,0-.09-.06-.08-.12Zm.16.64c.15-.03.22.09.22.22,0,.11-.02.21-.17.3-.04-.12-.07-.2-.09-.28-.02-.08-.08-.2.04-.23Zm.12,1.39c-.11,0-.17-.07-.16-.18,0-.08.04-.14.14-.15.12.03.19.1.19.22,0,.11-.09.11-.16.1Zm.26-11.79c-.25.1-.27.1-.49-.01-.03-.02-.09.02-.13.03-.1.13-.19.27-.21.45-.05.38-.06.38-.41.46.23.1.38.24.31.5-.02.15-.04.3-.06.48-.21-.1-.08-.27-.13-.38-.16.02-.06.23-.2.26.07.31-.06.6-.07.9,0,.15-.07.23-.23.2-.12-.02-.24.01-.37-.04-.18-.07-.31-.09-.02-.2.11-.04.08-.19.05-.24-.25-.35-.12-.75-.16-1.13,0-.07-.01-.15-.02-.23.05-.26-.03-.5-.09-.75,0,0,0-.01,0-.01-.03-.12-.14-.25.01-.37.53-.13,1.06-.06,1.6-.05.27.07.51-.13.77-.1.09-.01.18-.04.27-.04.41,0,.41,0,.38.42-.01.22.07.45,0,.67.18.17-.07.29-.05.45,0,.05-.03.04-.04-.02-.02-.15-.21-.3-.01-.45-.12-.15-.19-.3-.1-.5.03-.07.08-.19-.02-.25-.1-.06-.14.06-.2.11-.17.14-.24.03-.25-.14-.05,0-.1-.03-.14-.02Zm.15,3.69c.03-.51-.11-1.04.2-1.52.01-.02.06-.01.1-.02.06.48-.09.96.04,1.44.03.11-.04.21-.18.23-.1.02-.17-.05-.16-.13Zm.15.51s.11-.1.16-.06c.16.11.07.26.03.42-.22-.09-.3-.2-.18-.36Zm.47,3.17c.02-.13.04-.25.2-.26.08,0,.16-.02.21.07.06.12-.05.11-.11.14-.11.06-.03.13,0,.19.11.45,0,.89-.05,1.34-.01.09-.05.15-.14.14-.11-.01-.22.03-.33-.07.14-.5.16-1.03.24-1.55Zm-.24,2.16c0-.13.03-.25.18-.28.17-.04.22.07.24.21.02.12.07.24.07.36,0,.09.1.23-.08.26-.17.03-.32,0-.37-.19-.04-.12.04-.25-.04-.36Zm.13,1.16c.02-.08-.03-.14-.03-.22,0-.14.06-.25.2-.26.15-.02.23.08.26.21.02.09,0,.18,0,.27.02.15.07.33-.17.33-.22,0-.31-.13-.26-.33Zm.08.83c-.08-.21,0-.34.21-.34.17,0,.25.13.2.31,0,.03,0,.06,0,.09,0,.15.11.37-.17.38-.23,0-.26-.16-.23-.35,0-.03,0-.06,0-.09Zm.06,1.16c-.01-.07,0-.15,0-.21-.03-.09-.04-.17,0-.24.07-.13.19-.16.32-.12.08.02.24.58.19.64-.07.08-.12.19-.26.17-.14-.02-.23-.11-.25-.24Zm.09.87s.02-.09.03-.12c-.02-.08-.07-.15-.04-.23.04-.11.11-.18.24-.17.11,0,.16.07.16.18,0,.12.02.24,0,.36-.01.1.04.28-.16.26-.16-.01-.25-.12-.24-.28Zm.44,1.18c-.08.06-.17.03-.25-.02h-.03s-.01-.02-.01-.02q-.12-.47.19-.75c.12.19.07.38.04.57.03.01.04.04.04.07.06.04.09.1.03.14Zm1.93-14.21s-.02.11-.05.11c-.07.02-.11-.03-.12-.1.01-.05.01-.12.1-.11.05,0,.07.05.07.1Zm-.17-3.63s-.01.05-.02.1c-.09,0-.11-.04-.12-.08-.02-.09-.13-.23.02-.26.16-.03.08.16.12.24Zm-.09-2.85s0-.1.08-.07c.06.03.09.08.08.14,0,.05-.04.08-.09.07-.07-.02-.07-.08-.06-.14Zm-.06,3.25s.09-.06.12-.01c.07.11.15.23,0,.35-.03-.02-.06-.03-.07-.05-.03-.09-.14-.18-.04-.28Zm.14-3.9c.06.01.09.05.08.1-.02.1-.08.16-.18.17-.08,0-.11-.05-.09-.12.03-.1.09-.16.2-.15Zm-.16,2.66s.08.03.07.09c-.02.07-.07.1-.13.09-.04,0-.07-.04-.06-.09.01-.07.07-.08.13-.09Zm-.02,11.12c0,.17-.28.11-.26.29.01.12.09.22.17.31.05.06.02.15-.02.21-.04.08-.11.07-.18.05-.2-.25-.08-.52-.04-.77.02-.16.18-.19.33-.09Zm-1.26-13.03s-.05-.07-.04-.11c.01-.06.04-.11.11-.08.02,0,.03.05.03.07,0,.06-.03.11-.1.12Zm.36,7.87c-.14-.17-.11-.3.1-.39,0,0-.1-.03-.16-.05-.18-.37-.17-.4.1-.39.09,0,.21-.04.24.08.03.1-.01.21-.13.26.14.02.17.12.17.23-.02.53.07,1.06.11,1.59,0,.14.08.27-.04.39-.08.08-.02.13.04.18.1.08.12.18.03.28-.1.1-.23.11-.35.06-.1-.05-.08-.16-.07-.25.06-.34-.1-.66-.07-1,.02-.32-.15-.65.04-.97Zm.07,3.06c.06.17.1.29.14.42.02.06,0,.12-.07.14-.07.02-.13-.03-.15-.08-.05-.14-.07-.29.08-.48Zm-.04,7.75c-.03-.15.04-.3-.06-.43,0-.1.01-.19.11-.24.09-.05.21-.05.22.07.01.19,0,.39.06.58.02.08-.02.15-.11.17-.1.01-.18-.03-.21-.13Zm.43,2.88c-.07,0-.12-.02-.13-.08-.02-.06.03-.08.07-.09.06-.02.13,0,.15.06.02.06-.01.11-.09.12Zm.15-5.61s-.09-.01-.1-.06c0-.05.02-.08.07-.09.06,0,.12.02.12.09,0,.05-.06.06-.1.06Zm.09,2.74s.04-.07.09-.06c.04.01.09.03.07.08-.01.04-.04.08-.09.07-.04-.01-.08-.04-.07-.09Zm.13,1.15q.12.3-.02.65c-.02-.22-.05-.39.02-.65Zm.14,1.73c-.09,0-.15-.05-.13-.13.01-.05.1-.06.16-.05.05.01.12.02.12.1-.02.07-.08.08-.14.08Zm.44-14.1c-.06.22-.02.45-.18.65-.12.15.14.22.1.36-.02.08-.04.15-.14.15-.1,0-.12-.08-.13-.2.19-.13.03-.28.01-.45-.02-.18.03-.36.05-.54.02-.11,0-.28.18-.26.17.02.14.14.1.28Zm1.11-1.58c-.04.16-.08.32-.17.47,0-.18-.2-.33-.08-.53.04-.07.09-.13.19-.1.07.03.08.09.07.15Zm-.14,3.1s-.05.05-.1.04c-.05-.01-.06-.06-.04-.1.01-.02.05-.04.07-.03.04,0,.08.03.07.1Zm.11-4.09c0,.06-.04.07-.09.07-.05,0-.09-.03-.06-.08.01-.02.04-.05.06-.05.06-.02.08.02.09.07Zm-.21-2.97s.07.09.09.15c.04.1,0,.2-.11.2-.08,0-.09-.11-.08-.19.01-.06.01-.12.1-.16Zm-.26-.46c.02-.06,0-.16.11-.15.07,0,.07.08.07.14,0,.06-.02.12-.09.13-.09,0-.08-.07-.09-.12Zm.18,6.67c-.07,0-.08-.08-.08-.14.02-.08-.03-.22.14-.22.08,0,.1.07.09.13-.02.09,0,.23-.15.24Zm.14,8.76c-.11-.11-.12-.24-.11-.28,0-.16-.01-.22,0-.28.02-.07.03-.16.14-.15.07,0,.11.08.09.14-.04.17.01.33.08.48.02.04.01.09-.04.12-.06.03-.12.02-.17-.03Zm.16.97c-.05,0-.08-.05-.06-.09,0-.02.05-.03.07-.04.05.01.08.05.06.1,0,.02-.05.04-.07.04Zm1.19-23.88c-.07.08-.01.14.02.2.1.19.04.39.03.58,0,.09-.1.1-.18.05-.1-.07-.09-.17-.09-.28,0-.06,0-.12,0-.18-.01-.03-.03-.06-.04-.1v-.09s.02-.04.05-.06c.17-.08.18-.1.12-.13-.07-.02-.13-.06-.16-.1-.02-.03-.04-.07-.04-.12,0-.23-.06-.46,0-.68,0-.04.03-.06.05-.07.04-.02.09,0,.14.02.09.06.18.14.18.25-.01.23.13.48-.05.7Zm-.1,28.35c-.08-.06-.13-.11-.16-.16-.04-.07-.03-.13,0-.19.02-.05.06-.1.1-.15.09.15.01.29.06.5Zm-.16.44s.07-.04.11-.03c.07.01.11.06.1.13,0,.07-.05.12-.11.12-.04,0-.07-.01-.1-.03-.03-.02-.05-.06-.05-.11,0-.04.03-.06.05-.08Zm.12-5.9c0-.27-.15-.43,0-.69.12.25.21.42,0,.69Zm-.09-10.43s-.02.05-.04.07c-.02.02-.05.04-.09.04-.08,0-.11-.06-.1-.13.03-.19.07-.39.11-.58,0-.03.03-.05.07-.06.03,0,.07,0,.13.01-.12.2-.04.43-.09.64Zm0,.61s-.02.05-.04.07c-.02.02-.05.04-.09.03-.08-.02-.06-.09-.06-.15,0-.07.04-.12.13-.09,0,0,.01,0,.02,0,.06.02.06.07.04.13Zm-.21-23.26c.08-.02.11.03.11.1,0,.05-.04.08-.09.08-.05,0-.09-.03-.09-.11,0-.02.03-.06.07-.07Zm-.18,7.29c.02-.08.21-.08.35-.04.08.02.15.06.17.1.06.11.09.22.02.34.02.34.05.67.07,1.01,0,.15-.05.24-.22.22-.01,0-.02,0-.03,0-.12-.03-.12-.11-.09-.22.08-.33-.06-.66-.05-1-.28-.03-.26-.23-.21-.4Zm.13,16.84c.03-.09.11-.1.19-.09.01,0,.03,0,.04.01.05.02.08.07.06.12-.01.03-.03.04-.06.05-.04.02-.1.02-.16,0-.04-.01-.09-.03-.07-.09Zm.13.65s.03-.09.09-.08c0,0,0,0,0,0,.04.02.05.06.04.1,0,.02-.02.04-.04.05-.02,0-.04,0-.06,0-.02-.01-.04-.05-.04-.07Zm.05,14.7s0-.09.05-.11c.01,0,.03,0,.05,0,.03,0,.08.03.08.04-.03.35.22.7-.04,1.09-.05-.14-.07-.27-.09-.4-.02-.21-.02-.41-.05-.6Zm.2,1.54c-.05,0-.09-.03-.1-.07,0-.08.04-.1.11-.11.07.01.11.06.1.13,0,.03-.07.05-.12.05Zm.15-23.25c-.05,0-.08-.03-.1-.08-.02-.08.04-.14.07-.22.04.07.11.11.13.18.02.08-.04.11-.1.11Zm-6.26,40.01c-.05.17.03.42-.24.49-.16-.15-.21-.33-.17-.53.03-.13.13-.21.27-.2.15.02.16.16.14.24Zm1.18.11c-.05-.01-.06-.09-.05-.15.01-.06.05-.1.11-.1.07.02.1.07.09.13-.01.08-.07.14-.15.12Zm1.41,4.54c.17.25.17.4.03.55-.13-.14-.04-.29-.03-.55Zm-.01-.34s0-.08.05-.11c.05,0,.09.02.09.07,0,.02-.02.06-.04.07-.04.02-.09.01-.11-.03Zm-1.1-6.6c-.06-.25-.03-.49.09-.73.12.26.06.5-.09.73Zm.24-1.2c-.02.07-.07.11-.13.07-.07-.04-.07-.13-.05-.2.01-.06.05-.1.12-.11.09.06.08.15.06.23Zm0-1.48c0-.06,0-.13.09-.13.05,0,.08.04.08.09,0,.06-.02.12-.1.12-.05,0-.08-.04-.08-.09Zm.3,9.6c-.04.15-.13.29-.12.46-.06-.15-.04-.31-.08-.45-.02-.08,0-.2.13-.19.09.01.1.12.08.19Zm.62,1.48c-.09.02-.1-.07-.09-.12,0-.06,0-.14.04-.18.02-.02.04-.03.08-.02.02,0,.04.01.05.02.02.03.03.08.03.13,0,.06,0,.15-.11.17Zm.11-7.13s-.05-.01-.06-.03c-.1-.15-.1-.31,0-.46.01-.02.12-.02.13,0,.08.18.08.35-.07.49Zm.28,7.05s-.01.03-.03.06c-.02-.05-.03-.07-.04-.08,0-.07-.05-.13-.02-.2,0-.02.02-.03.03-.05.01-.01.07,0,.08,0,0,.01.01.03.02.04.02.07-.03.14-.03.21Zm-.03-.78c-.12-.14-.11-.31,0-.49q.12.27,0,.49Zm.03-.86c-.08.01-.11-.04-.11-.11,0-.05.04-.09.09-.09.05,0,.08.04.09.09,0,.05-.02.1-.07.1Zm.16-3.97s.06-.02.08-.01c.02,0,.06.04.06.05-.04.22.1.48-.16.71-.21-.28-.02-.51.02-.75Zm.16,5.66c-.13.01-.11-.12-.11-.2,0-.02,0-.05.01-.07.02-.05.06-.08.14-.07.04,0,.07.03.08.07,0,.01,0,.03,0,.05-.02.09-.02.21-.12.22Zm.06-6.4s.02.06.02.09c0,.12.05.25-.11.32-.02.01-.07,0-.09-.01-.14-.12.03-.22.02-.33-.12-.46.11-.88.19-1.32.15.43.02.84-.03,1.26Zm.65.06s-.11.03-.12,0c-.08-.26-.05-.5.1-.73-.15-.25-.02-.47.09-.69.05.24.22.47-.04.7.14.25.07.49-.04.73Zm.14-7.12c-.08,0-.09-.06-.08-.12,0-.04.01-.08.07-.09.07.01.09.07.09.13,0,.05-.03.08-.08.08Zm.05-.49s-.11-.11-.11-.18c0-.07.09-.11.17-.11.07.01.12.05.11.12,0,.1-.08.18-.17.17Zm.34-3.48c-.07-.02-.11-.09-.11-.19.01-.04,0-.13.08-.11.08.01.11.1.12.17.01.07-.04.14-.1.13Zm.61,17.55c-.08-.12-.08-.22.01-.35.08.14.06.24-.01.35Zm.11-1.19c0,.08,0,.2-.13.17-.08-.02-.1-.1-.07-.18.03-.07.02-.15.11-.2.1.06.1.14.1.21Zm-.02-.39s-.13.03-.17-.01c-.13-.13,0-.21.1-.37.06.16.18.26.07.38Zm1.01.24c.12.23.05.41.03.58-.11-.17-.22-.34-.03-.58Zm.03,1.36c-.13-.14-.15-.24-.06-.35.01-.02.07-.02.08-.01.07.11.03.22-.02.36Zm3.9-5.54q.17.15.11.61-.16-.27-.11-.61Zm-1.69,3.79c.22.61.1,1.17.04,1.8-.22-.61-.24-1.43-.04-1.8Zm-.38.08c.03.17.09.34,0,.5q-.08-.23,0-.5Zm-.03,1.01c.03.17.24.31.07.49,0,0-.03,0-.04,0-.17-.15-.02-.33-.03-.49Zm1.13-26.94s.05.04.05.05c0,.05-.05.08-.1.06-.02,0-.04-.05-.03-.07,0-.02.05-.03.08-.04Zm-1.1-17.46c.15,0,.22.03.25.11.03.1-.07.08-.12.09-.09.02-.16-.03-.16-.12,0-.05.03-.08.03-.08Zm-.51-2.56c.08.01.13.05.11.11,0,.02-.07.04-.11.04-.07,0-.11-.04-.09-.11,0-.03.07-.04.09-.05Zm-.19,6.82s.06-.06.1-.04c.02.01.02.05.03.07-.03.04-.06.05-.11.04-.04-.01-.05-.04-.03-.07Zm.09.35s.09.02.09.07c-.02.06-.06.1-.13.1-.07,0-.13-.04-.11-.1.01-.07.09-.07.15-.07Zm-.17.98s.09-.05.12-.02c.1.13.19.27.07.43-.04-.02-.08-.03-.09-.05-.05-.12-.17-.22-.1-.36Zm-.02,13.84c.06,0,.08.05.08.09,0,.06-.02.12-.1.12-.05,0-.08-.04-.09-.09,0-.07.05-.1.11-.12Zm.02,1.34c-.07-.19-.1-.3-.02-.43.11.13.07.24.02.43Zm-.71-42.8s.09-.01.13.02c.07.07.04.13,0,.2-.03.05-.04.11-.07.18-.14-.05-.17-.13-.18-.23,0-.09.04-.14.12-.18Zm-.04,1.45c.08,0,.2,0,.2.07.02.18.04.35.11.48,0,.09-.03.13-.09.13-.04,0-.1,0-.13-.04-.14-.16-.1-.37-.18-.55-.02-.04.03-.08.08-.09Zm-.18,58.18c-.02-.08.02-.14.1-.16.07,0,.12.03.12.1,0,.06-.01.12-.08.14-.07.02-.12,0-.14-.07Zm.14,5.88s-.09-.04-.07-.09c.01-.04.04-.08.09-.07.05.01.07.04.06.09-.01.04-.03.09-.09.07Zm.5-10.34c.17-.02.15.12.17.22.01.04.02.09.04.15-.13.17-.05.36-.02.55.01.09-.03.15-.13.14-.06,0-.13-.05-.1-.13.07-.23,0-.43-.08-.65-.04-.1-.05-.26.13-.28Zm-.12-.5s.05-.04.07-.04c.05,0,.09.03.08.09-.02.05-.06.07-.1.06-.05-.02-.06-.06-.05-.11Zm.16,8.34c-.16-.17-.07-.36-.05-.54.11.17.09.36.05.54Zm-.08-.83c-.05-.36-.01-.65.02-.96.19.24.19.35-.02.96Zm.19-2.43s-.08-.04-.08-.09c0-.06.02-.12.08-.13.09-.02.09.06.09.11,0,.05,0,.13-.1.11Zm.07-7.77c-.02.05-.06.1-.14.23-.02-.16-.04-.22-.03-.28.01-.09-.04-.26.12-.23.12.02.08.17.05.27Zm.29-3.37c-.02.06-.07.12-.14.08-.09-.06-.09-.16-.06-.24.02-.06.08-.09.15-.07.12.06.08.15.04.24Zm-.97-1.39c.36-.1.71-.13,1.06.03-.35.02-.71.1-1.06-.03Zm1.07-26.2c-.05,0-.08-.03-.08-.08,0-.04.02-.08.08-.08.05,0,.08.04.08.08,0,.05-.04.08-.09.08Zm.22,2.15c0-.06.03-.11.1-.13.1,0,.11.09.12.15,0,.05-.03.08-.08.06-.06-.01-.13-.02-.14-.09Zm.15,24.78s-.08-.02-.09-.07c0-.05.02-.08.08-.09.05,0,.08.03.09.07,0,.05-.02.08-.07.08Zm.27-7.21s-.08-.03-.09-.07c0-.05.02-.08.1-.09.02,0,.06.02.06.07,0,.05-.02.09-.07.09Zm-.03-.99c-.11,0-.13-.07-.13-.15,0-.08.04-.14.14-.14.09,0,.13.08.14.15,0,.08-.06.13-.15.14Zm.05-6.02c-.09,0-.14-.04-.15-.13-.01-.08.02-.14.08-.17.15,0,.16.1.17.19,0,.07-.02.11-.1.11Zm.02-15.19s.08-.05.1-.09c.07-.14-.02-.22-.11-.31-.06-.06-.03-.12.02-.16.07-.04.12,0,.13.07.04.13.06.27.04.41.05.1.09.21-.03.29-.08.05-.2-.1-.16-.21Zm.3,8.86s-.03.08-.09.06c-.05-.01-.07-.04-.07-.11.02-.02.05-.06.08-.07.09-.01.08.06.07.11Zm.04-5.95c-.08,0-.11-.06-.11-.12,0-.06.04-.12.12-.12.05,0,.07.05.07.16,0,0,0,.06-.08.07Zm.04-.64c-.07.02-.07-.03-.08-.07-.01-.05.02-.08.06-.09.05,0,.08.02.09.07,0,.05-.03.08-.07.09Zm.27-6.13c0,.05-.05.11-.12.26-.03-.16-.04-.22-.05-.28,0-.06,0-.14.07-.14.11,0,.11.09.1.16Zm.31,31.6c-.02.06-.07.11-.14.09-.1-.03-.14-.12-.11-.22.03-.08.09-.12.16-.12.12.07.13.16.09.25Zm1.08-24.86c0-.18.01-.36.03-.54,0-.04.06-.07.11-.06.05.01.11.05.09.08-.11.23-.01.47,0,.71-.15-.02-.23-.1-.24-.21Zm.82-3.88s-.06-.02-.06-.04c-.02-.04,0-.08.06-.08.02.01.06.02.07.04.01.04-.01.08-.06.08Zm.24,4.08s0,.1-.11.11c-.02-.04-.06-.1-.05-.12.08-.13.05-.43.21-.37.3.1-.11.24-.05.39Zm3.66-15.44v1.04c-.17-.51-.18-.72,0-1.04Zm-.5,1.95c-.03.08-.06.2-.18.17-.09-.03-.16-.14-.13-.22.07-.24.06-.48,0-.72-.01-.05.02-.13.1-.13.07,0,.11.04.13.1.06.17.13.35.12.54-.01.09-.02.18-.04.27Zm.45,1.41c0-.44-.17-.86-.19-1.3.17,0,.22.05.24.12.06.18.05.85-.05,1.17Zm.6,2.41c-.09-.48-.18-.96-.08-1.45.2.47.12.96.08,1.45Zm1.02-.87c-.11.06-.2,0-.2-.06,0-.5-.04-1,.04-1.5,0-.02.04-.04.13-.12.04.6.05,1.14.02,1.68Zm.26-4.14c0,.23,0,.45,0,.68,0,.12.02.24-.06.41-.08-.39-.02-.73.06-1.08Zm-.05,2.98c.04.07.09.13.13.2-.09-.08-.14-.14-.13-.2Z"/>
      </g>
    </g>
    <g id="_Your_Text_Here_" data-name="[Your Text Here]">
      <g>
        <text class="cls-1" transform="translate(40.27 137.09) scale(1.09 1)"><tspan x="0" y="0" xml:space="preserve"> Umar I.</tspan></text>
        <text/>
      </g>
    </g>
  </g>
</svg>